<svg width="268" height="250" viewBox="0 0 268 250" fill="none" xmlns="http://www.w3.org/2000/svg">
<g clip-path="url(#clip0_1958_25583)">
<g opacity="0.5">
<path opacity="0.05" d="M145.943 139.536V247.762H247.986V139.536H145.943ZM224.701 227.467C224.701 229.538 223.021 231.218 220.949 231.218H172.135C170.063 231.218 168.383 229.538 168.383 227.467V179.456C168.383 177.384 170.063 175.704 172.135 175.704H220.949C223.021 175.704 224.701 177.384 224.701 179.456V227.467Z" fill="#003058" stroke="#003058" stroke-width="4.95" stroke-miterlimit="10"/>
<path opacity="0.2" d="M189.963 229.413H172.78C171.225 229.413 169.963 228.152 169.963 226.596V215.951L186.028 210.854L188.639 219.085L184.558 222.112L189.965 229.413H189.963Z" fill="#003058"/>
<path opacity="0.2" d="M222.934 213.091V226.784C222.934 228.237 221.755 229.416 220.302 229.416H192.118L187.046 222.566L190.875 219.726L214.766 202.058L222.931 213.093L222.934 213.091Z" fill="#003058"/>
<path opacity="0.2" d="M207.425 177.765L201.808 188.773L192.355 183.959L180.223 177.765H207.425Z" fill="#003058"/>
<path opacity="0.2" d="M229.431 130.485L225.865 137.475H174.958L189.026 109.882L224.897 128.166L229.431 130.485Z" fill="#003058"/>
</g>
<g opacity="0.4">
<path d="M57.7812 74.3314L50.1881 57.3111L52.9176 56.0931L55.1162 45.4062L52.7011 39.991L52.7885 39.9452C52.8385 39.9202 54.0315 39.3122 55.5617 39.9056C57.2149 40.5469 58.5765 42.3041 59.6071 45.1273C61.0582 49.106 61.5933 50.1657 61.7828 50.4426C61.7828 50.4239 61.7807 50.4051 61.7765 50.3864L61.7661 50.3093L61.8369 50.2781C62.7446 49.8784 70.7291 46.3806 71.8117 46.822C72.5758 47.1343 76.1402 54.4525 78.9967 60.5361C80.1564 63.0075 79.5838 65.9202 77.6351 67.4588C77.3353 67.6961 77.0271 67.8856 76.7211 68.023C74.5433 68.9953 62.6114 72.1953 62.4906 72.2286L57.777 74.3335L57.7812 74.3314ZM50.4629 57.4152L57.8853 74.0566L62.424 72.0308C62.5593 71.9934 74.4746 68.7954 76.6378 67.8314C76.9272 67.7024 77.2208 67.5212 77.506 67.2943C79.3798 65.814 79.9274 63.0095 78.8093 60.6236C74.9097 52.3185 72.2656 47.2301 71.7326 47.0135C70.8936 46.67 64.4831 49.3391 61.9889 50.4363C61.9993 50.6092 61.9597 50.7091 61.8681 50.732C61.7161 50.7674 61.4663 50.8298 59.4093 45.198C58.3995 42.4331 57.0795 40.7176 55.4847 40.0992C54.2709 39.6287 53.2674 39.966 52.9717 40.0888L55.3327 45.3813L53.0987 56.2389L50.4609 57.4152H50.4629Z" fill="#003058"/>
<path d="M52.1973 77.4834L42.2557 59.6803L48.8702 57.186L56.9734 75.3535L52.1973 77.4834ZM42.5555 59.7885L52.2868 77.2148L56.7006 75.2474L48.762 57.4504L42.5576 59.7885H42.5555Z" fill="#003058"/>
</g>
<g opacity="0.4">
<path d="M164.908 11.6344L162.341 5.87766L163.274 5.46126L163.99 1.98224L163.174 0.152164L163.261 0.10636C163.28 0.0980317 163.701 -0.116414 164.236 0.0897037C164.802 0.308313 165.266 0.903765 165.614 1.85732C166.003 2.92538 166.191 3.34803 166.276 3.51459C166.99 3.20021 169.249 2.23 169.614 2.37782C169.695 2.41113 169.945 2.51315 172.027 6.94989C172.424 7.79726 172.227 8.79453 171.556 9.32336C171.452 9.40456 171.346 9.47118 171.24 9.51907C170.513 9.84386 166.684 10.8703 166.522 10.914L164.908 11.6344ZM162.616 5.98176L165.014 11.3596L166.453 10.7183C166.507 10.7016 170.444 9.64607 171.154 9.32961C171.246 9.29005 171.338 9.23175 171.427 9.16097C172.022 8.69043 172.195 7.79934 171.837 7.03941C170.355 3.88519 169.674 2.66305 169.528 2.56936C169.33 2.49857 167.796 3.07529 166.405 3.68531C166.395 3.77068 166.347 3.79566 166.314 3.80399C166.201 3.83105 166.12 3.85187 165.418 1.93019C165.092 1.03493 164.669 0.481119 164.161 0.285411C163.849 0.164656 163.582 0.214623 163.449 0.256263L164.209 1.95934L163.459 5.607L162.618 5.98176H162.616Z" fill="#003058"/>
<path d="M163.068 12.6756L159.71 6.6607L162.035 5.78418L164.771 11.9177L163.07 12.6777L163.068 12.6756ZM160.009 6.76896L163.157 12.407L164.496 11.8095L161.925 6.04651L160.009 6.76896Z" fill="#003058"/>
</g>
<g opacity="0.4">
<path d="M48.5787 200.496L46.2657 199.466C46.047 199.408 40.511 197.923 39.4658 197.457C39.3159 197.39 39.164 197.296 39.0182 197.18C38.0667 196.428 37.7857 195.008 38.352 193.803C40.3445 189.558 41.5125 187.34 41.8185 187.215C42.3473 187.001 45.9221 188.556 46.6321 188.871L46.6467 188.877C46.7653 188.656 47.036 188.059 47.6273 186.439C48.127 185.073 48.787 184.221 49.5948 183.909C50.3505 183.616 50.9418 183.917 50.9668 183.93L51.0542 183.976L49.8842 186.597L50.9272 191.665L52.2576 192.258L48.5808 200.499L48.5787 200.496ZM41.983 187.394C41.9455 187.394 41.9164 187.399 41.8955 187.407C41.7998 187.455 41.273 188.069 38.5394 193.89C38.0147 195.008 38.2708 196.322 39.1473 197.015C39.2806 197.122 39.4159 197.205 39.5512 197.265C40.5818 197.725 46.2781 199.253 46.3364 199.268L48.4746 200.22L51.9807 192.358L50.744 191.806L49.6676 186.568L50.7815 184.074C50.6004 184.009 50.1715 183.903 49.6676 184.101C48.9223 184.392 48.3018 185.202 47.8251 186.505C46.8257 189.245 46.7091 189.216 46.5842 189.187C46.5384 189.177 46.4884 189.137 46.4843 189.029C44.9602 188.358 42.5534 187.394 41.9851 187.394H41.983Z" fill="#003058"/>
<path d="M51.2458 202.002L48.8661 200.94L52.7844 192.154L56.0552 193.386L51.2437 202.002H51.2458ZM49.1409 200.836L51.1563 201.735L55.7554 193.497L52.8948 192.418L49.1409 200.836Z" fill="#003058"/>
</g>
<g opacity="0.4">
<path d="M212.557 105.951L207.827 103.842C207.722 103.815 195.791 100.615 193.611 99.6426C193.305 99.5052 192.997 99.3157 192.699 99.0783C190.75 97.5397 190.177 94.627 191.337 92.1557C194.194 86.0721 197.758 78.7539 198.522 78.4416C199.603 77.9981 207.591 81.498 208.497 81.8977L208.568 81.9289L208.557 82.006C208.555 82.0247 208.553 82.0434 208.551 82.0622C208.741 81.7853 209.274 80.7255 210.727 76.7468C211.757 73.9237 213.119 72.1664 214.772 71.5252C216.302 70.9318 217.495 71.5377 217.545 71.5648L217.633 71.6106L215.218 77.0258L217.416 87.7127L220.146 88.9307L220.104 89.0265L212.555 105.953L212.557 105.951ZM198.809 78.604C198.722 78.604 198.651 78.6144 198.601 78.6352C198.07 78.8517 195.424 83.9401 191.525 92.2452C190.404 94.6312 190.952 97.4356 192.826 98.916C193.111 99.1429 193.405 99.324 193.694 99.4531C195.857 100.419 207.772 103.615 207.893 103.646L212.449 105.676L219.871 89.0348L217.233 87.8585L217.223 87.8064L215.001 77.0008L217.362 71.7084C217.064 71.5856 216.057 71.2483 214.845 71.7209C213.252 72.3413 211.932 74.0548 210.925 76.8176C208.868 82.4494 208.616 82.387 208.466 82.3516C208.374 82.3287 208.333 82.2287 208.345 82.0559C206.001 81.0233 200.19 78.6019 198.809 78.6019V78.604Z" fill="#003058"/>
<path d="M218.141 109.105L213.363 106.975L213.404 106.879L221.466 88.8076L228.08 91.3019L218.139 109.105H218.141ZM213.64 106.869L218.053 108.836L227.785 91.4101L221.58 89.072L213.642 106.869H213.64Z" fill="#003058"/>
</g>
<path opacity="0.4" d="M64.7871 124.445H56.48V116.578H64.7871V124.445ZM56.6882 124.237H64.5789V116.786H56.6882V124.237Z" fill="#003058"/>
<path opacity="0.4" d="M201.143 50.5363H192.836V42.6685H201.143V50.5363ZM193.044 50.3281H200.935V42.8767H193.044V50.3281Z" fill="#003058"/>
<path opacity="0.4" d="M165.318 115.182H157.011V107.314H165.318V115.182ZM157.219 114.974H165.11V107.523H157.219V114.974Z" fill="#003058"/>
<path opacity="0.4" d="M76.3298 226.043H68.0226V218.175H76.3298V226.043ZM68.2308 225.834H76.1216V218.383H68.2308V225.834Z" fill="#003058"/>
<path opacity="0.4" d="M145.943 139.536V247.762H247.986V139.536H145.943ZM224.701 227.467C224.701 229.538 223.021 231.218 220.949 231.218H172.135C170.063 231.218 168.383 229.538 168.383 227.467V179.456C168.383 177.384 170.063 175.704 172.135 175.704H220.949C223.021 175.704 224.701 177.384 224.701 179.456V227.467Z" stroke="#003058" stroke-miterlimit="10"/>
<path d="M170.956 249.584H91.6323C89.9855 244.454 88.1075 236.846 87.8848 227.514C87.8098 224.379 87.8431 217.831 90.3831 205.862C90.4914 205.356 90.6018 204.837 90.7204 204.308C100.393 203.091 110.066 201.873 119.739 200.657C118.309 191.546 117.201 183.865 116.408 178.171C116.408 178.171 116.106 176.004 115.752 170.761C115.74 170.58 115.727 170.395 115.715 170.205L138.629 170.114C138.617 170.351 138.606 170.586 138.594 170.822C137.957 184.049 137.624 194.738 137.436 201.906C142.327 201.381 148.604 201.217 155.758 202.322C159.139 202.845 162.206 203.571 164.929 204.377C167.455 211.598 169.093 215.851 170.332 222.309C172.493 233.558 171.85 243.177 170.956 249.584Z" fill="#003058"/>
<path d="M179.284 65.9515C179.149 70.7838 173.032 71.1856 171.581 77.1943C170.448 81.8829 173.118 83.7068 171.165 87.6043C169.505 90.9146 166.003 92.7468 164.294 93.6421C160.892 95.4222 160.303 94.4874 157.84 96.1405C154.507 98.3765 154.786 100.627 151.594 102.803C149.895 103.96 148.229 104.406 146.655 104.681C145.233 103.927 143.813 103.173 142.391 102.42C141.359 100.852 140.328 99.6757 139.518 98.8471C137.707 96.992 136.439 96.6776 135.979 96.5569C135.485 96.4278 135.042 96.3757 134.682 96.357C134.698 96.1467 134.715 95.9364 134.73 95.7241C134.98 92.3408 135.188 89.0096 135.354 85.7305C136.162 84.2252 136.999 82.3451 137.644 80.1091C138.827 76.0075 138.871 72.3974 138.685 69.9073C139.477 69.4763 140.705 68.6518 141.6 67.2007C143.262 64.5045 143.183 60.5675 141.392 59.0809C141.248 58.9622 140.382 58.2419 139.518 58.4563C138.835 58.6249 138.313 59.3557 138.061 59.7055C137.684 60.2281 137.557 60.6486 137.02 60.9547C136.847 61.0526 136.626 61.1796 136.395 61.1629C135.667 61.1129 135.194 59.6972 134.938 58.8727C133.914 55.5665 133.861 53.5969 133.064 50.9611C132.758 49.9513 132.437 49.1539 132.231 48.6709C131.234 48.2628 129.974 47.6174 128.692 46.5889C126.333 44.6964 125.115 42.4832 124.528 41.1757C123.803 41.1653 122.104 41.0404 120.364 39.9265C118.809 38.9313 118.003 37.6488 117.657 37.0117C117.051 37.4261 116.144 37.9424 114.951 38.2609C112.935 38.8002 111.226 38.4837 110.37 38.2609C110.416 38.8814 110.395 39.9744 109.746 40.9675C109.125 41.9148 108.213 42.3417 106.831 42.8413C105.353 43.3764 103.252 44.026 100.585 44.5069C100.556 45.1045 100.431 46.0143 99.9603 47.0053C99.1525 48.7063 97.8283 49.5849 97.2537 49.9201C97.2662 54.5734 97.8013 58.3564 98.2947 60.9547C98.4904 61.9895 100.556 72.3745 107.247 82.6075C109.09 85.4244 110.939 87.7042 113.701 89.6863C115.629 91.0687 117.435 91.8994 118.698 92.3929V97.6353C115.596 97.6228 113.989 98.5389 113.077 99.4717C113.029 99.5195 112.985 99.5674 112.942 99.6174C111.189 101.564 112.148 103.719 109.746 106.134C107.799 108.089 106.7 107.15 103.708 109.673C101.799 111.283 101.699 112.128 99.7521 113.213C98.8943 113.692 97.3536 114.527 95.3799 114.462C95.3716 114.462 95.3612 114.462 95.3528 114.46C95.2363 114.206 95.1072 113.929 94.9635 113.629C93.4437 110.465 92.6671 109.819 92.0487 109.465C91.397 109.093 90.0604 108.549 89.5503 109.049C89.0236 109.565 89.8418 110.744 90.5955 113.084C88.1637 112.653 87.231 113.548 85.5945 113.213C85.5654 113.207 85.5383 113.2 85.5092 113.192C85.1136 113.105 84.768 112.959 84.4619 112.763C81.7178 111.037 82.1925 105.53 77.8911 102.178C73.1379 98.4723 68.3493 101.922 64.9827 97.8061C63.313 95.7657 64.1229 94.4686 61.4433 90.5191C59.5071 87.6646 58.5598 87.571 57.904 85.7305C56.6423 82.1952 58.6743 78.4372 59.5696 76.7779C63.0611 70.3154 67.5728 70.8942 68.7303 66.1597C69.6797 62.2768 66.9044 60.8194 68.5221 57.4153C69.7588 54.8149 71.9075 54.5526 73.1025 51.1693C73.5856 49.8014 73.2753 49.7286 73.7271 47.0053C74.3226 43.416 74.7661 40.7489 76.4337 38.4691C76.8647 37.882 77.3852 37.3053 82.6797 33.8887C84.9678 32.4126 86.902 31.2071 88.3011 30.3493C88.6259 26.7808 89.8689 24.7196 91.0077 23.4788C96.4813 17.5222 110.345 18.8567 125.556 27.5699C126.789 28.2757 128.207 28.5921 129.625 28.5026C139.306 27.8968 143.622 30.3577 145.764 32.8477C147.513 34.8819 147.89 37.0242 150.761 38.6773C154.044 40.5678 155.852 39.0896 160.338 40.9675C161.91 41.6254 165.046 42.9371 166.792 45.9643C168.473 48.8729 166.946 50.0325 168.458 52.8349C170.323 56.291 173.19 55.5457 176.37 59.4973C177.565 60.9818 179.361 63.2158 179.284 65.9515Z" fill="#003058"/>
<path d="M134.823 98.3954C134.728 98.3455 134.632 98.2934 134.536 98.2434V98.231C134.63 98.283 134.723 98.3371 134.823 98.3954Z" fill="#003058"/>
<path opacity="0.5" d="M91.2159 115.503C91.041 114.585 90.8203 113.781 90.5955 113.084C88.1637 112.653 87.231 113.548 85.5945 113.213C85.5654 113.207 85.5383 113.2 85.5092 113.192C85.7923 116.121 86.1067 119.571 86.4273 123.415C86.5585 124.991 86.698 126.696 86.8437 128.524C87.1435 127.949 87.4829 127.362 87.8847 126.746C88.5052 125.788 89.3296 124.905 90.1749 123.206C90.635 122.282 91.1826 121.162 91.4241 119.667C91.4845 119.296 91.6823 117.935 91.2159 115.503Z" fill="#71F2E7"/>
<path d="M94.1308 174.632C93.9559 175.242 93.7373 175.839 93.7373 175.839C93.6748 176.008 93.6207 176.145 93.5874 176.231L91.6324 176.506C91.1702 177.42 90.2812 179.062 88.9258 180.763C87.1332 183.02 84.5224 185.381 81.0142 186.291C79.8129 186.601 78.3243 186.966 76.8502 186.291C75.9591 185.883 74.4642 184.815 72.478 177.13C71.7805 174.432 71.3246 172.086 71.0206 170.26V170.051C70.8811 169.912 70.7437 169.775 70.6042 169.635L69.9796 169.01C70.0171 168.182 70.1295 167.191 70.396 166.096C70.777 164.532 71.3454 163.272 71.8534 162.348C72.3697 162.398 72.8882 162.446 73.4045 162.496C75.27 152.994 77.3166 143.294 79.5568 133.408C81.1454 126.398 82.7839 119.515 84.462 112.763C84.768 112.959 85.1137 113.105 85.5092 113.192C85.7924 116.121 86.1068 119.571 86.4274 123.415C86.5586 124.991 86.6981 126.696 86.8438 128.524C86.0943 129.967 85.5883 131.343 84.97 132.992C84.92 133.125 84.8701 133.258 84.8201 133.392C84.7951 133.46 84.768 133.529 84.741 133.602C80.9288 143.739 76.9522 153.483 73.7272 163.181C76.1319 164.347 79.1321 165.565 82.6798 166.512C86.9146 167.643 90.6997 168.061 93.7144 168.178C93.7144 168.221 94.0954 168.317 94.7741 168.444C94.8845 170.087 94.8158 172.242 94.1308 174.632Z" fill="white"/>
<path opacity="0.2" d="M157.478 169.031C157.944 167.001 158.41 164.969 158.879 162.939C158.462 164.963 158.048 166.987 157.632 169.011C157.58 169.017 157.53 169.025 157.478 169.031Z" fill="#71F2E7"/>
<path d="M196.773 162.452C196.151 163.335 195.53 164.205 194.91 165.063C195.045 165.338 195.18 165.613 195.316 165.888C194.877 166.725 194.331 167.643 193.65 168.594C192.595 170.07 191.497 171.236 190.527 172.134C190.525 172.134 189.836 172.059 189.834 172.059L189.636 172.038C189.784 171.811 189.934 171.584 190.082 171.357C188.791 169.904 184.943 165.981 179.284 165.679C178.15 165.619 177.1 165.713 176.161 165.888C175.899 166.239 175.633 166.589 175.37 166.941C175.368 166.941 175.368 166.943 175.368 166.943C175.36 166.956 175.349 166.966 175.341 166.979C175.268 166.685 175.193 166.389 175.12 166.096C175.489 165.23 175.903 164.324 176.37 163.389C176.851 162.423 177.342 161.522 177.827 160.683C177.967 160.614 178.104 160.543 178.243 160.474C175.664 158.066 173.086 155.657 170.507 153.246C167.927 150.837 165.35 148.43 162.77 146.019C165.012 136.263 167.255 126.509 169.499 116.752C171.76 120.281 174.05 123.823 176.37 127.371C183.69 138.568 191.054 149.463 198.439 160.058C197.893 160.851 197.34 161.649 196.773 162.452Z" fill="white"/>
<path d="M139.935 144.443C139.337 151.226 139.248 158.046 138.894 164.846C138.8 166.643 138.713 168.398 138.629 170.114L115.715 170.205C115.086 160.664 114.322 141.622 114.743 108.216C114.763 106.484 114.863 102.686 117.449 99.8879C117.855 99.4486 118.28 99.0801 118.698 98.7699V101.345C118.952 101.699 121.646 105.32 126.402 105.301C129.125 105.291 131.165 104.091 132.494 102.948C133.614 101.985 134.23 101.062 134.313 100.929C134.39 100.038 134.465 99.1426 134.536 98.2432C134.632 98.2931 134.728 98.3452 134.823 98.3952C134.823 98.3952 134.823 98.3972 134.826 98.3972C135.138 98.5867 135.475 98.8136 135.821 99.0926C136.429 99.584 136.891 100.086 137.228 100.513C137.228 100.513 138.388 101.995 138.894 104.052C138.948 104.277 139.002 104.504 139.054 104.735C142.204 118.68 139.935 144.443 139.935 144.443Z" fill="white"/>
<path opacity="0.2" d="M94.1308 174.632C93.9559 175.242 93.7373 175.839 93.7373 175.839C93.6748 176.008 93.6207 176.145 93.5874 176.231L91.6324 176.506C91.1702 177.42 90.2812 179.062 88.9258 180.763C87.1332 183.02 84.5224 185.381 81.0142 186.291C79.8129 186.601 78.3243 186.966 76.8502 186.291C75.9591 185.883 74.4642 184.815 72.478 177.13C71.7805 174.432 71.3246 172.086 71.0206 170.26V170.051C70.8811 169.912 70.7437 169.775 70.6042 169.635L69.9796 169.01C70.0171 168.182 70.1295 167.191 70.396 166.096C70.777 164.532 71.3454 163.272 71.8534 162.348C72.3697 162.398 72.8882 162.446 73.4045 162.496C75.27 152.994 77.3166 143.294 79.5568 133.408C81.1454 126.398 82.7839 119.515 84.462 112.763C84.768 112.959 85.1137 113.105 85.5092 113.192C85.7924 116.121 86.1068 119.571 86.4274 123.415C86.5586 124.991 86.6981 126.696 86.8438 128.524C86.0943 129.967 85.5883 131.343 84.97 132.992C84.92 133.125 84.8701 133.258 84.8201 133.392C84.7951 133.46 84.768 133.529 84.741 133.602C80.9288 143.739 76.9522 153.483 73.7272 163.181C76.1319 164.347 79.1321 165.565 82.6798 166.512C86.9146 167.643 90.6997 168.061 93.7144 168.178C93.7144 168.221 94.0954 168.317 94.7741 168.444C94.8845 170.087 94.8158 172.242 94.1308 174.632Z" fill="#71F2E7"/>
<path opacity="0.2" d="M196.773 162.452C196.151 163.335 195.53 164.205 194.91 165.063C195.045 165.338 195.18 165.613 195.316 165.888C194.877 166.725 194.331 167.643 193.65 168.594C192.595 170.07 191.497 171.236 190.527 172.134C190.525 172.134 189.836 172.059 189.834 172.059L189.636 172.038C189.784 171.811 189.934 171.584 190.082 171.357C188.791 169.904 184.943 165.981 179.284 165.679C178.15 165.619 177.1 165.713 176.161 165.888C175.899 166.239 175.633 166.589 175.37 166.941C175.368 166.941 175.368 166.943 175.368 166.943C175.36 166.956 175.349 166.966 175.341 166.979C175.268 166.685 175.193 166.389 175.12 166.096C175.489 165.23 175.903 164.324 176.37 163.389C176.851 162.423 177.342 161.522 177.827 160.683C177.967 160.614 178.104 160.543 178.243 160.474C175.664 158.066 173.086 155.657 170.507 153.246C167.927 150.837 165.35 148.43 162.77 146.019C165.012 136.263 167.255 126.509 169.499 116.752C171.76 120.281 174.05 123.823 176.37 127.371C183.69 138.568 191.054 149.463 198.439 160.058C197.893 160.851 197.34 161.649 196.773 162.452Z" fill="#71F2E7"/>
<path opacity="0.2" d="M139.935 144.443C139.337 151.226 139.248 158.046 138.894 164.846C138.8 166.643 138.713 168.398 138.629 170.114L115.715 170.205C115.086 160.664 114.322 141.622 114.743 108.216C114.763 106.484 114.863 102.686 117.449 99.8879C117.855 99.4486 118.28 99.0801 118.698 98.7699V101.345C118.952 101.699 121.646 105.32 126.402 105.301C129.125 105.291 131.165 104.091 132.494 102.948C133.614 101.985 134.23 101.062 134.313 100.929C134.39 100.038 134.465 99.1426 134.536 98.2432C134.632 98.2931 134.728 98.3452 134.823 98.3952C134.823 98.3952 134.823 98.3972 134.826 98.3972C135.138 98.5867 135.475 98.8136 135.821 99.0926C136.429 99.584 136.891 100.086 137.228 100.513C137.228 100.513 138.388 101.995 138.894 104.052C138.948 104.277 139.002 104.504 139.054 104.735C142.204 118.68 139.935 144.443 139.935 144.443Z" fill="#71F2E7"/>
<path d="M190.082 171.357C189.934 171.584 189.784 171.81 189.636 172.037C185.495 176.289 183.332 178.202 182.407 179.004C181.956 179.395 168.198 191.283 165.96 193.994C165.289 194.806 164.71 195.66 164.71 195.66C164.246 196.345 163.884 196.963 163.615 197.459C163.559 197.559 163.509 197.652 163.461 197.742C163.17 197.611 162.847 197.488 162.531 197.352C162.137 197.184 161.752 196.996 161.444 196.753C160.651 196.124 159.899 195.435 159.129 194.779C158.621 194.344 158.408 194.169 158.044 194.055C157.59 193.913 157.165 193.946 156.174 194.202C154.611 194.606 154.382 194.852 153.259 195.035C152.275 195.195 151.765 195.116 151.386 194.827C151.263 194.733 150.946 194.492 150.969 194.202C151.005 193.776 151.748 193.665 153.259 192.953C154.159 192.528 154.14 192.453 154.925 192.12C155.623 191.825 156.139 191.606 156.799 191.496C157.305 191.41 158.179 191.342 159.299 191.664C159.066 191.552 158.714 191.381 158.29 191.169C155.86 189.963 155.92 189.874 155.55 189.83C154.604 189.718 153.707 190.29 151.915 191.431C151.369 191.779 150.915 192.116 150.136 192.329C149.966 192.374 148.51 192.762 148.263 192.329C147.986 191.841 149.387 190.594 151.177 188.997C152.96 187.409 153.547 187.192 154.092 187.124C154.902 187.022 155.854 187.221 156.382 187.332C156.997 187.461 157.496 187.623 157.84 187.748C156.918 186.584 155.989 185.876 155.341 185.458C154.552 184.948 154.163 184.86 153.884 184.833C153.345 184.783 152.876 184.931 151.594 185.666C149.589 186.815 149.046 187.421 147.846 187.54C147.48 187.575 146.757 187.648 146.597 187.332C146.281 186.711 148.377 185.087 149.512 184.209C151.298 182.824 152.216 182.133 153.468 182.127C154.582 182.123 155.464 182.614 155.966 182.96C155.608 182.312 155.119 181.458 154.509 180.461C154.138 179.855 154.055 179.741 153.884 179.628C153.043 179.075 151.727 179.649 149.928 180.461C148.548 181.084 147.93 181.531 146.805 181.502C146.578 181.496 145.685 181.473 145.556 181.086C145.431 180.713 146.068 180.159 146.805 179.628C148.885 178.129 152.339 175.639 154.925 176.922C155.67 177.292 156.091 177.85 156.474 178.415C156.514 178.473 156.553 178.531 156.591 178.587C156.651 178.677 156.714 178.768 156.776 178.862C158.119 180.855 159.843 183.361 162.212 186.707C165.271 182.354 168.329 177.842 171.373 173.174C172.058 172.125 173.571 169.976 175.368 166.943C175.368 166.943 175.368 166.941 175.37 166.941C175.633 166.589 175.899 166.239 176.161 165.887C177.1 165.712 178.15 165.619 179.284 165.679C184.943 165.981 188.791 169.903 190.082 171.357Z" fill="white"/>
<path d="M141.6 67.2007C140.705 68.6518 139.477 69.4763 138.686 69.9073C138.871 72.3973 138.827 76.0075 137.645 80.1091C136.999 82.3451 136.162 84.2252 135.354 85.7304C135.188 89.0096 134.98 92.3408 134.73 95.724C134.715 95.9364 134.699 96.1467 134.682 96.357C134.636 96.9836 134.586 97.6082 134.536 98.2308V98.2433C134.465 99.1427 134.39 100.038 134.313 100.929C134.23 101.062 133.614 101.985 132.494 102.949C131.165 104.092 129.125 105.291 126.402 105.301C121.646 105.32 118.952 101.699 118.698 101.345V92.3928C117.435 91.8994 115.629 91.0687 113.702 89.6862C110.939 87.7042 109.09 85.4244 107.247 82.6075C100.556 72.3744 98.4905 61.9894 98.2948 60.9547C97.8013 58.3564 97.2663 54.5734 97.2538 49.9201C97.8284 49.5849 99.1526 48.7063 99.9604 47.0053C100.431 46.0143 100.556 45.1044 100.585 44.5069C103.252 44.026 105.353 43.3764 106.831 42.8413C108.213 42.3416 109.125 41.9148 109.746 40.9675C110.395 39.9744 110.416 38.8814 110.37 38.2609C111.226 38.4837 112.935 38.8002 114.951 38.2609C116.144 37.9424 117.051 37.426 117.657 37.0117C118.003 37.6488 118.809 38.9313 120.364 39.9265C122.105 41.0404 123.803 41.1653 124.528 41.1757C125.115 42.4832 126.333 44.6964 128.692 46.5889C129.974 47.6174 131.234 48.2628 132.231 48.6709C132.437 49.1539 132.758 49.9513 133.064 50.9611C133.862 53.5969 133.914 55.5665 134.938 58.8727C135.194 59.6972 135.667 61.1129 136.395 61.1629C136.626 61.1795 136.847 61.0525 137.02 60.9547C137.557 60.6486 137.684 60.2281 138.061 59.7055C138.313 59.3557 138.835 58.6249 139.518 58.4563C140.382 58.2418 141.248 58.9622 141.392 59.0809C143.183 60.5674 143.262 64.5045 141.6 67.2007Z" fill="white"/>
<path d="M109.121 126.746C109.007 127.656 109.642 127.843 109.538 128.828C109.442 129.731 108.882 129.786 108.705 130.702C108.476 131.884 109.3 132.342 109.121 133.2C108.873 134.38 107.012 134.924 105.79 135.282C103.337 135.998 102.7 135.357 99.7521 136.115C99.2296 136.248 98.5029 136.481 97.0455 136.948C95.7381 137.366 94.6617 137.733 93.9225 137.989C94.0579 142.042 94.1307 146.208 94.1307 150.481C94.1307 156.597 93.9808 162.502 93.7143 168.178C90.6996 168.061 86.9145 167.642 82.6798 166.512C79.132 165.565 76.1319 164.347 73.7272 163.181C76.9522 153.483 80.9288 143.739 84.7409 133.602C84.768 133.529 84.7951 133.46 84.8201 133.392C84.87 133.258 84.92 133.125 84.97 132.992C85.5883 131.343 86.0942 129.967 86.8438 128.526C87.1436 127.949 87.4829 127.362 87.8848 126.746C88.5052 125.788 89.3297 124.905 90.175 123.206C90.6351 122.282 91.1826 121.162 91.4242 119.667C91.4845 119.296 91.6823 117.935 91.216 115.503C91.0411 114.585 90.8204 113.781 90.5955 113.084C89.8418 110.744 89.0236 109.565 89.5504 109.049C90.0604 108.549 91.3971 109.093 92.0488 109.465C92.6671 109.819 93.4437 110.465 94.9635 113.629C95.1072 113.929 95.2363 114.206 95.3529 114.46C96.244 116.417 96.3856 117.079 97.2537 117.585C97.8055 117.906 98.2344 117.918 100.169 118.001C103.088 118.126 104.547 118.195 104.749 118.21C105.557 118.268 110.766 118.636 110.995 120.083C111.128 120.922 109.475 121.416 109.538 122.79C109.577 123.637 110.145 123.81 110.162 124.664C110.181 125.572 109.256 125.678 109.121 126.746Z" fill="white"/>
<path opacity="0.2" d="M190.082 171.357C189.934 171.584 189.784 171.81 189.636 172.037C185.495 176.289 183.332 178.202 182.407 179.004C181.956 179.395 168.198 191.283 165.96 193.994C165.289 194.806 164.71 195.66 164.71 195.66C164.246 196.345 163.884 196.963 163.615 197.459C163.559 197.559 163.509 197.652 163.461 197.742C163.17 197.611 162.847 197.488 162.531 197.352C162.137 197.184 161.752 196.996 161.444 196.753C160.651 196.124 159.899 195.435 159.129 194.779C158.621 194.344 158.408 194.169 158.044 194.055C157.59 193.913 157.165 193.946 156.174 194.202C154.611 194.606 154.382 194.852 153.259 195.035C152.275 195.195 151.765 195.116 151.386 194.827C151.263 194.733 150.946 194.492 150.969 194.202C151.005 193.776 151.748 193.665 153.259 192.953C154.159 192.528 154.14 192.453 154.925 192.12C155.623 191.825 156.139 191.606 156.799 191.496C157.305 191.41 158.179 191.342 159.299 191.664C159.066 191.552 158.714 191.381 158.29 191.169C155.86 189.963 155.92 189.874 155.55 189.83C154.604 189.718 153.707 190.29 151.915 191.431C151.369 191.779 150.915 192.116 150.136 192.329C149.966 192.374 148.51 192.762 148.263 192.329C147.986 191.841 149.387 190.594 151.177 188.997C152.96 187.409 153.547 187.192 154.092 187.124C154.902 187.022 155.854 187.221 156.382 187.332C156.997 187.461 157.496 187.623 157.84 187.748C156.918 186.584 155.989 185.876 155.341 185.458C154.552 184.948 154.163 184.86 153.884 184.833C153.345 184.783 152.876 184.931 151.594 185.666C149.589 186.815 149.046 187.421 147.846 187.54C147.48 187.575 146.757 187.648 146.597 187.332C146.281 186.711 148.377 185.087 149.512 184.209C151.298 182.824 152.216 182.133 153.468 182.127C154.582 182.123 155.464 182.614 155.966 182.96C155.608 182.312 155.119 181.458 154.509 180.461C154.138 179.855 154.055 179.741 153.884 179.628C153.043 179.075 151.727 179.649 149.928 180.461C148.548 181.084 147.93 181.531 146.805 181.502C146.578 181.496 145.685 181.473 145.556 181.086C145.431 180.713 146.068 180.159 146.805 179.628C148.885 178.129 152.339 175.639 154.925 176.922C155.67 177.292 156.091 177.85 156.474 178.415C156.514 178.473 156.553 178.531 156.591 178.587C156.651 178.677 156.714 178.768 156.776 178.862C158.119 180.855 159.843 183.361 162.212 186.707C165.271 182.354 168.329 177.842 171.373 173.174C172.058 172.125 173.571 169.976 175.368 166.943C175.368 166.943 175.368 166.941 175.37 166.941C175.633 166.589 175.899 166.239 176.161 165.887C177.1 165.712 178.15 165.619 179.284 165.679C184.943 165.981 188.791 169.903 190.082 171.357Z" fill="#003058"/>
<path opacity="0.2" d="M141.6 67.2007C140.705 68.6518 139.477 69.4763 138.686 69.9073C138.871 72.3973 138.827 76.0075 137.645 80.1091C136.999 82.3451 136.162 84.2252 135.354 85.7304C135.188 89.0096 134.98 92.3408 134.73 95.724C134.715 95.9364 134.699 96.1467 134.682 96.357C134.636 96.9836 134.586 97.6082 134.536 98.2308V98.2433C134.465 99.1427 134.39 100.038 134.313 100.929C134.23 101.062 133.614 101.985 132.494 102.949C131.165 104.092 129.125 105.291 126.402 105.301C121.646 105.32 118.952 101.699 118.698 101.345V92.3928C117.435 91.8994 115.629 91.0687 113.702 89.6862C110.939 87.7042 109.09 85.4244 107.247 82.6075C100.556 72.3744 98.4905 61.9894 98.2948 60.9547C97.8013 58.3564 97.2663 54.5734 97.2538 49.9201C97.8284 49.5849 99.1526 48.7063 99.9604 47.0053C100.431 46.0143 100.556 45.1044 100.585 44.5069C103.252 44.026 105.353 43.3764 106.831 42.8413C108.213 42.3416 109.125 41.9148 109.746 40.9675C110.395 39.9744 110.416 38.8814 110.37 38.2609C111.226 38.4837 112.935 38.8002 114.951 38.2609C116.144 37.9424 117.051 37.426 117.657 37.0117C118.003 37.6488 118.809 38.9313 120.364 39.9265C122.105 41.0404 123.803 41.1653 124.528 41.1757C125.115 42.4832 126.333 44.6964 128.692 46.5889C129.974 47.6174 131.234 48.2628 132.231 48.6709C132.437 49.1539 132.758 49.9513 133.064 50.9611C133.862 53.5969 133.914 55.5665 134.938 58.8727C135.194 59.6972 135.667 61.1129 136.395 61.1629C136.626 61.1795 136.847 61.0525 137.02 60.9547C137.557 60.6486 137.684 60.2281 138.061 59.7055C138.313 59.3557 138.835 58.6249 139.518 58.4563C140.382 58.2418 141.248 58.9622 141.392 59.0809C143.183 60.5674 143.262 64.5045 141.6 67.2007Z" fill="#003058"/>
<path opacity="0.2" d="M109.121 126.746C109.007 127.656 109.642 127.843 109.538 128.828C109.442 129.731 108.882 129.786 108.705 130.702C108.476 131.884 109.3 132.342 109.121 133.2C108.873 134.38 107.012 134.924 105.79 135.282C103.337 135.998 102.7 135.357 99.7521 136.115C99.2296 136.248 98.5029 136.481 97.0455 136.948C95.7381 137.366 94.6617 137.733 93.9225 137.989C94.0579 142.042 94.1307 146.208 94.1307 150.481C94.1307 156.597 93.9808 162.502 93.7143 168.178C90.6996 168.061 86.9145 167.642 82.6798 166.512C79.132 165.565 76.1319 164.347 73.7272 163.181C76.9522 153.483 80.9288 143.739 84.7409 133.602C84.768 133.529 84.7951 133.46 84.8201 133.392C84.87 133.258 84.92 133.125 84.97 132.992C85.5883 131.343 86.0942 129.967 86.8438 128.526C87.1436 127.949 87.4829 127.362 87.8848 126.746C88.5052 125.788 89.3297 124.905 90.175 123.206C90.6351 122.282 91.1826 121.162 91.4242 119.667C91.4845 119.296 91.6823 117.935 91.216 115.503C91.0411 114.585 90.8204 113.781 90.5955 113.084C89.8418 110.744 89.0236 109.565 89.5504 109.049C90.0604 108.549 91.3971 109.093 92.0488 109.465C92.6671 109.819 93.4437 110.465 94.9635 113.629C95.1072 113.929 95.2363 114.206 95.3529 114.46C96.244 116.417 96.3856 117.079 97.2537 117.585C97.8055 117.906 98.2344 117.918 100.169 118.001C103.088 118.126 104.547 118.195 104.749 118.21C105.557 118.268 110.766 118.636 110.995 120.083C111.128 120.922 109.475 121.416 109.538 122.79C109.577 123.637 110.145 123.81 110.162 124.664C110.181 125.572 109.256 125.678 109.121 126.746Z" fill="#003058"/>
<path d="M163.461 197.742C163.17 197.611 162.847 197.488 162.531 197.353C162.137 197.184 161.752 196.997 161.444 196.753C160.651 196.124 159.899 195.435 159.129 194.779C158.621 194.344 158.408 194.169 158.044 194.055C157.59 193.913 157.165 193.946 156.174 194.202C154.611 194.606 154.382 194.852 153.259 195.035C152.275 195.196 151.765 195.116 151.386 194.827C151.263 194.733 150.946 194.492 150.969 194.202C151.005 193.776 151.748 193.665 153.259 192.953C154.159 192.529 154.14 192.454 154.925 192.12C155.623 191.825 156.139 191.606 156.799 191.496C157.305 191.411 158.179 191.342 159.299 191.665C159.066 191.552 158.714 191.381 158.29 191.169C155.86 189.964 155.92 189.874 155.55 189.83C154.604 189.718 153.707 190.29 151.914 191.431C151.369 191.779 150.915 192.116 150.136 192.329C149.966 192.374 148.51 192.762 148.263 192.329C147.986 191.841 149.387 190.594 151.177 188.997C152.96 187.409 153.547 187.192 154.092 187.124C154.902 187.022 155.854 187.222 156.382 187.332C156.997 187.461 157.496 187.623 157.84 187.748C156.918 186.584 155.989 185.877 155.341 185.458C154.552 184.948 154.163 184.861 153.884 184.833C153.345 184.784 152.876 184.931 151.594 185.666C149.589 186.816 149.046 187.421 147.846 187.54C147.48 187.575 146.757 187.648 146.597 187.332C146.281 186.711 148.377 185.088 149.512 184.209C151.298 182.824 152.216 182.133 153.468 182.127C154.582 182.123 155.464 182.614 155.966 182.96C155.608 182.312 155.119 181.459 154.509 180.461C154.138 179.855 154.055 179.741 153.884 179.629C153.043 179.075 151.727 179.649 149.928 180.461C148.548 181.084 147.93 181.531 146.805 181.502C146.578 181.496 145.685 181.473 145.556 181.086C145.431 180.713 146.068 180.159 146.805 179.629C148.885 178.129 152.339 175.639 154.925 176.922C155.67 177.293 156.091 177.85 156.474 178.415C156.514 178.473 156.553 178.531 156.591 178.588C156.651 178.677 156.714 178.769 156.776 178.862C156.489 177.875 156.199 176.87 155.91 175.848C156.432 173.576 156.955 171.303 157.478 169.031C157.944 167.001 158.41 164.969 158.879 162.939C160.174 157.299 161.471 151.659 162.77 146.019C165.012 136.263 167.255 126.508 169.499 116.752C163.32 113.498 157.142 110.236 150.969 106.967C149.531 106.205 148.092 105.443 146.655 104.681C145.233 103.927 143.813 103.173 142.391 102.42C141.359 100.852 140.328 99.6756 139.518 98.847C137.707 96.9919 136.439 96.6776 135.979 96.5568C135.485 96.4277 135.042 96.3757 134.682 96.3569C134.636 96.9836 134.586 97.6082 134.536 98.2307C134.63 98.2828 134.723 98.3369 134.823 98.3952C134.823 98.3952 134.823 98.3973 134.825 98.3973C135.138 98.5868 135.475 98.8137 135.821 99.0927C136.429 99.584 136.891 100.086 137.228 100.513C137.228 100.513 138.388 101.995 138.894 104.052C138.948 104.277 139.002 104.504 139.054 104.735C142.204 118.68 139.935 144.443 139.935 144.443C139.337 151.226 139.248 158.047 138.894 164.846C138.8 166.643 138.713 168.398 138.629 170.114C138.617 170.351 138.606 170.586 138.594 170.822C137.957 184.049 137.624 194.738 137.436 201.906C142.327 201.381 148.604 201.217 155.758 202.322C159.139 202.845 162.206 203.571 164.929 204.377C165.423 204.521 165.906 204.671 166.376 204.821C165.456 202.366 164.536 199.913 163.615 197.459C163.559 197.559 163.509 197.652 163.461 197.742ZM144.777 137.98C144.777 137.285 145.34 136.721 146.035 136.721H152.983C151.948 136.7 150.988 136.181 150.403 135.324L149.108 133.421C148.438 132.438 148.369 131.174 148.925 130.123C149.481 129.071 150.565 128.418 151.754 128.418H154.344C155.535 128.418 156.62 129.071 157.176 130.123C157.732 131.174 157.661 132.438 156.99 133.421L155.695 135.324C155.112 136.181 154.151 136.7 153.116 136.721H160.128C160.823 136.721 161.388 137.285 161.388 137.98C161.388 138.676 160.823 139.238 160.128 139.238H146.035C145.34 139.238 144.777 138.674 144.777 137.98Z" fill="#71F2E7"/>
<path d="M161.388 137.98C161.388 138.673 160.823 139.238 160.128 139.238H146.035C145.34 139.238 144.777 138.673 144.777 137.98C144.777 137.287 145.34 136.72 146.035 136.72H152.983C151.948 136.7 150.988 136.181 150.403 135.323L149.108 133.421C148.438 132.438 148.369 131.174 148.925 130.123C149.481 129.071 150.565 128.417 151.754 128.417H154.344C155.535 128.417 156.62 129.071 157.176 130.123C157.732 131.174 157.661 132.438 156.99 133.421L155.695 135.323C155.113 136.181 154.151 136.7 153.116 136.72H160.128C160.823 136.72 161.388 137.285 161.388 137.98Z" fill="#71F2E7"/>
<path d="M91.4241 119.667C91.1826 121.162 90.635 122.282 90.1749 123.206C89.3296 124.905 88.5052 125.788 87.8847 126.746C87.4829 127.362 87.1435 127.949 86.8437 128.524C86.698 126.696 86.5585 124.991 86.4273 123.415C86.1067 119.571 85.7923 116.121 85.5092 113.192C85.5383 113.2 85.5654 113.207 85.5945 113.213C87.231 113.548 88.1637 112.653 90.5955 113.084C90.8203 113.781 91.041 114.585 91.2159 115.503C91.6823 117.935 91.4845 119.296 91.4241 119.667Z" fill="#71F2E7"/>
<path d="M119.739 200.657C110.066 201.873 100.393 203.09 90.7204 204.308C89.9147 204.41 89.1069 204.51 88.3011 204.612C88.7613 194.883 88.8966 186.757 88.9257 180.878V180.763C90.2811 179.062 91.1701 177.419 91.6323 176.505C92.284 176.412 92.9378 176.318 93.5894 176.222C93.7851 175.727 93.9683 175.196 94.1307 174.632C94.8032 172.285 94.8865 170.143 94.7741 168.444C94.4201 168.425 94.0683 168.404 93.7143 168.386C93.9829 162.641 94.1328 156.668 94.1307 150.48C94.1307 146.21 94.0558 142.044 93.9225 137.989C94.6616 137.732 95.738 137.366 97.0455 136.948C98.5029 136.481 99.2296 136.248 99.7521 136.115C102.7 135.357 103.337 135.998 105.79 135.282C107.012 134.924 108.873 134.38 109.121 133.2C109.3 132.342 108.476 131.884 108.705 130.702C108.882 129.785 109.442 129.731 109.538 128.828C109.642 127.843 109.007 127.656 109.121 126.746C109.256 125.678 110.181 125.571 110.162 124.664C110.143 123.831 109.356 123.512 109.538 122.79C109.619 122.463 109.81 122.411 110.162 121.957C110.245 121.849 111.097 120.735 110.995 120.083C110.764 118.62 105.532 118.264 104.749 118.21C104.547 118.195 103.087 118.126 100.169 118.001C98.2344 117.918 97.8055 117.906 97.2537 117.585C96.3855 117.079 96.244 116.417 95.3529 114.46C95.3612 114.462 95.3716 114.462 95.3799 114.462C97.3537 114.526 98.8944 113.692 99.7521 113.213C101.699 112.128 101.799 111.283 103.708 109.673C106.7 107.15 107.799 108.089 109.746 106.134C112.148 103.719 111.189 101.564 112.942 99.6173C114.861 99.0822 116.779 98.5492 118.698 98.0142V98.7699C118.28 99.0801 117.855 99.4487 117.449 99.888C114.863 102.686 114.763 106.484 114.743 108.216C114.322 141.622 115.086 160.664 115.715 170.205C115.727 170.395 115.74 170.58 115.752 170.761C116.106 176.004 116.408 178.171 116.408 178.171C117.201 183.865 118.309 191.546 119.739 200.657Z" fill="#71F2E7"/>
<path d="M118.698 97.6354V98.0143C116.779 98.5494 114.861 99.0824 112.942 99.6174C112.985 99.5675 113.029 99.5196 113.077 99.4717C113.989 98.539 115.596 97.6229 118.698 97.6354Z" fill="#71F2E7"/>
<path d="M159.297 138.499C159.297 139.105 158.804 139.598 158.196 139.598H145.877C145.269 139.598 144.777 139.105 144.777 138.499C144.777 137.893 145.269 137.397 145.877 137.397H158.196C158.804 137.397 159.297 137.891 159.297 138.499Z" fill="#003058"/>
<path d="M155.614 131.63C155.129 130.712 154.18 130.14 153.139 130.14H150.876C149.837 130.14 148.887 130.71 148.402 131.63C147.917 132.551 147.975 133.654 148.562 134.514L149.695 136.177C150.207 136.927 151.046 137.381 151.95 137.4C151.971 137.4 151.987 137.4 152.008 137.4C152.029 137.4 152.046 137.4 152.066 137.4C152.97 137.381 153.811 136.929 154.321 136.177L155.454 134.514C156.039 133.654 156.101 132.551 155.616 131.63H155.614ZM153.634 133.275L152.502 134.939C152.422 135.051 152.331 135.118 152.241 135.155C152.15 135.191 152.066 135.201 152.006 135.201C151.887 135.201 151.667 135.166 151.511 134.939L150.378 133.275C150.195 133.007 150.293 132.755 150.343 132.659C150.393 132.563 150.547 132.34 150.871 132.34H153.135C153.459 132.34 153.613 132.563 153.663 132.659C153.713 132.755 153.813 133.007 153.628 133.275H153.634Z" fill="#003058"/>
<path opacity="0.1" d="M118.388 147.102C120.037 146.175 123.129 144.743 127.193 144.655C130.838 144.576 133.703 145.611 135.354 146.369" fill="#003058"/>
<path d="M267.026 250H0.973868C0.686553 250 0.453369 249.767 0.453369 249.479C0.453369 249.192 0.686553 248.959 0.973868 248.959H267.026C267.313 248.959 267.547 249.192 267.547 249.479C267.547 249.767 267.313 250 267.026 250Z" fill="#003058"/>
<path d="M134.823 98.7074C134.775 98.7074 134.726 98.6949 134.68 98.672L134.392 98.52C134.288 98.4659 134.224 98.3597 134.224 98.2431C134.224 98.1265 134.282 98.0245 134.378 97.9683C134.474 97.9121 134.592 97.9037 134.688 97.9579C134.784 98.012 134.88 98.0661 134.982 98.1265C135.127 98.2119 135.179 98.3992 135.098 98.5471C135.042 98.6491 134.934 98.7095 134.825 98.7095L134.823 98.7074Z" fill="#003058"/>
<path d="M126.364 105.614C122.217 105.614 119.621 102.984 118.694 101.851C118.496 101.608 118.386 101.302 118.386 100.985V92.6053C116.654 91.912 115.017 91.0147 113.52 89.9404C110.458 87.7439 108.572 85.1997 106.987 82.7783C100.312 72.5703 98.2073 62.1644 97.9887 61.0131C97.3037 57.4092 96.9519 53.6782 96.9415 49.9223C96.9415 49.8119 96.9998 49.7078 97.0955 49.6516C97.8929 49.1873 98.986 48.3275 99.6772 46.8722C100.031 46.1268 100.231 45.3252 100.273 44.4924C100.279 44.3467 100.385 44.2259 100.529 44.201C102.686 43.8116 104.77 43.2557 106.725 42.5499C108.157 42.0315 108.934 41.638 109.486 40.799C110.05 39.937 110.11 38.9564 110.06 38.286C110.052 38.1861 110.093 38.0882 110.173 38.0237C110.25 37.9591 110.354 37.9362 110.452 37.9612C111.474 38.2277 113.071 38.4442 114.872 37.9612C115.796 37.7135 116.675 37.3096 117.482 36.7557C117.555 36.7058 117.647 36.6891 117.732 36.7099C117.818 36.7308 117.891 36.787 117.934 36.864C118.365 37.6572 119.167 38.7899 120.535 39.6643C122.044 40.6303 123.543 40.851 124.534 40.8635C124.655 40.8635 124.765 40.9364 124.815 41.0488C125.746 43.1225 127.155 44.9546 128.89 46.3454C129.937 47.1845 131.103 47.8694 132.352 48.3816C132.429 48.4128 132.489 48.4732 132.521 48.5482C132.843 49.3019 133.127 50.0847 133.366 50.8696C133.741 52.1063 133.951 53.191 134.174 54.3361C134.43 55.6561 134.694 57.0219 135.24 58.7791C135.658 60.1282 136.056 60.8257 136.42 60.8507C136.558 60.8611 136.724 60.7633 136.862 60.6862C137.186 60.5009 137.33 60.2719 137.528 59.9534C137.609 59.8243 137.701 59.6765 137.811 59.5224C138.088 59.1372 138.656 58.3481 139.448 58.1524C140.328 57.9338 141.169 58.4876 141.592 58.8374C143.51 60.4281 143.639 64.4921 141.869 67.3632C141.184 68.475 140.224 69.389 139.014 70.0823C139.248 73.528 138.89 76.9279 137.948 80.1945C137.388 82.137 136.62 84.0275 135.667 85.8159C135.502 89.0597 135.292 92.4013 135.046 95.7471C135.032 95.9573 135.015 96.1697 134.998 96.38C134.952 97.0046 134.903 97.625 134.853 98.2455C134.853 98.2538 134.853 98.2621 134.853 98.2684C134.792 99.0241 134.732 99.7757 134.667 100.525C134.636 100.888 134.505 101.229 134.288 101.512C133.978 101.92 133.449 102.543 132.702 103.186C131.421 104.287 129.289 105.603 126.408 105.614H126.368H126.364ZM97.5661 50.0972C97.5869 53.7552 97.9346 57.3883 98.6008 60.8965C98.8173 62.0374 100.899 72.3288 107.508 82.4369C109.059 84.8082 110.903 87.2962 113.883 89.4324C115.396 90.5171 117.054 91.4165 118.811 92.1015C118.932 92.1494 119.009 92.2639 119.009 92.393V100.985C119.009 101.156 119.069 101.323 119.175 101.456C120.045 102.52 122.481 104.989 126.362 104.989H126.398C129.09 104.979 131.086 103.746 132.288 102.711C132.993 102.103 133.491 101.518 133.784 101.133C133.93 100.944 134.018 100.715 134.038 100.471C134.103 99.7258 134.163 98.9804 134.224 98.2288C134.224 98.2205 134.224 98.2101 134.224 98.2059C134.274 97.5834 134.324 96.9609 134.37 96.3342C134.386 96.1218 134.403 95.9136 134.417 95.7033C134.665 92.3367 134.875 88.9764 135.042 85.716C135.044 85.6702 135.057 85.6244 135.079 85.5848C136.027 83.8172 136.791 81.9476 137.345 80.0238C138.284 76.7655 138.629 73.3718 138.375 69.9324C138.367 69.8095 138.429 69.6929 138.538 69.6346C139.733 68.983 140.676 68.1106 141.336 67.0384C142.929 64.4546 142.86 60.705 141.194 59.3225C140.926 59.0997 140.232 58.6021 139.595 58.7604C139.027 58.8999 138.55 59.564 138.321 59.8826C138.217 60.0262 138.136 60.1574 138.057 60.2844C137.838 60.6362 137.632 60.9673 137.176 61.2255C136.97 61.3421 136.697 61.4982 136.375 61.4732C135.517 61.4149 135.017 60.172 134.642 58.9644C134.088 57.1739 133.82 55.7914 133.56 54.4548C133.341 53.3243 133.133 52.2562 132.768 51.0507C132.55 50.3262 132.29 49.6058 131.996 48.9104C130.736 48.3816 129.56 47.6841 128.498 46.8326C126.737 45.4189 125.298 43.5743 124.326 41.4819C123.258 41.4402 121.732 41.1717 120.197 40.189C118.879 39.3457 118.049 38.2839 117.553 37.4553C116.764 37.955 115.919 38.3256 115.034 38.5629C113.325 39.0189 111.79 38.8919 110.699 38.6587C110.699 39.5914 110.464 40.443 110.008 41.1383C109.302 42.2147 108.247 42.6624 106.937 43.135C105.024 43.8283 102.988 44.3779 100.881 44.7693C100.812 45.5959 100.597 46.3912 100.244 47.1387C99.5273 48.6439 98.4239 49.5684 97.5682 50.0951L97.5661 50.0972Z" fill="#003058"/>
<path opacity="0.2" d="M157.478 169.344C157.39 169.344 157.305 169.306 157.244 169.24C157.176 169.165 157.151 169.06 157.174 168.961L157.394 168.003C157.788 166.291 158.181 164.58 158.575 162.869C158.612 162.702 158.779 162.598 158.945 162.633C159.112 162.671 159.218 162.833 159.185 163.002L157.938 169.073C157.911 169.204 157.802 169.304 157.669 169.321L157.603 169.329C157.573 169.333 157.544 169.337 157.515 169.342C157.503 169.342 157.49 169.342 157.48 169.342L157.478 169.344Z" fill="#003058"/>
<path d="M166.376 205.133C166.345 205.133 166.312 205.129 166.28 205.118C165.733 204.943 165.275 204.804 164.842 204.677C161.86 203.794 158.789 203.107 155.71 202.63C149.701 201.702 143.564 201.562 137.47 202.216C137.38 202.226 137.291 202.197 137.224 202.135C137.157 202.074 137.122 201.987 137.124 201.897C137.39 191.664 137.782 181.204 138.282 170.807L138.317 170.097C138.4 168.381 138.488 166.626 138.581 164.83C138.702 162.504 138.794 160.135 138.883 157.844C139.054 153.439 139.231 148.884 139.624 144.416C139.647 144.157 141.854 118.541 138.75 104.803C138.698 104.574 138.644 104.348 138.59 104.125C138.107 102.164 136.993 100.719 136.982 100.704C136.587 100.204 136.131 99.7442 135.625 99.3341C135.329 99.0946 135.015 98.876 134.663 98.6637C134.663 98.6637 134.655 98.6595 134.651 98.6554C134.557 98.6012 134.472 98.5512 134.384 98.5034C134.278 98.443 134.215 98.3264 134.224 98.2056C134.274 97.5831 134.324 96.9606 134.37 96.3339C134.382 96.1653 134.526 96.0341 134.696 96.0445C135.159 96.0695 135.617 96.1382 136.056 96.2548C136.57 96.3901 137.89 96.7357 139.739 98.6283C140.792 99.7068 141.756 100.9 142.606 102.18L146.799 104.404C148.236 105.166 149.674 105.928 151.113 106.69C157.367 110.002 163.601 113.294 169.643 116.475C169.768 116.542 169.834 116.683 169.801 116.821C167.557 126.577 165.314 136.331 163.072 146.087C161.773 151.728 160.476 157.368 159.181 163.008C158.785 164.719 158.394 166.431 158 168.142L156.23 175.839C156.512 176.834 156.795 177.813 157.074 178.775C157.117 178.923 157.045 179.081 156.905 179.145C156.766 179.21 156.599 179.164 156.514 179.035L156.328 178.762C156.291 178.706 156.253 178.65 156.216 178.596C156.21 178.587 156.203 178.579 156.199 178.569C155.837 178.038 155.454 177.534 154.783 177.201C152.366 176.004 149 178.429 146.986 179.88C145.85 180.699 145.845 180.961 145.85 180.988C145.85 180.988 145.97 181.167 146.807 181.19C147.623 181.211 148.146 180.961 149.012 180.544C149.247 180.432 149.506 180.307 149.797 180.176C151.615 179.356 153.051 178.706 154.053 179.366C154.282 179.518 154.386 179.666 154.773 180.297C155.3 181.159 155.793 182.004 156.237 182.808C156.308 182.935 156.28 183.093 156.172 183.191C156.064 183.289 155.906 183.299 155.785 183.216C155.035 182.699 154.259 182.437 153.478 182.437H153.466C152.341 182.443 151.498 183.06 149.699 184.454C147.288 186.322 146.832 186.976 146.874 187.194C146.911 187.23 147.091 187.298 147.803 187.228C148.585 187.151 149.052 186.857 149.98 186.274C150.363 186.033 150.84 185.735 151.436 185.393C152.735 184.648 153.268 184.463 153.909 184.521C154.25 184.554 154.677 184.658 155.508 185.194C156.466 185.812 157.332 186.607 158.081 187.552C158.169 187.663 158.171 187.815 158.09 187.929C158.009 188.042 157.861 188.088 157.73 188.04C157.267 187.871 156.791 187.736 156.314 187.636C155.808 187.53 154.881 187.336 154.128 187.432C153.663 187.49 153.135 187.665 151.381 189.228L151.363 189.245C150.17 190.309 148.54 191.762 148.535 192.172C148.66 192.247 149.204 192.254 150.051 192.027C150.682 191.854 151.078 191.598 151.536 191.302L151.744 191.169C153.603 189.986 154.529 189.395 155.583 189.52C155.849 189.551 155.96 189.609 156.422 189.859C156.772 190.047 157.359 190.361 158.425 190.89C158.85 191.102 159.199 191.271 159.431 191.383C159.576 191.454 159.645 191.625 159.587 191.777C159.528 191.929 159.364 192.01 159.208 191.966C158.396 191.733 157.6 191.679 156.845 191.806C156.22 191.91 155.725 192.12 155.042 192.41C154.631 192.585 154.455 192.683 154.23 192.805C154.032 192.914 153.809 193.039 153.389 193.236C152.897 193.467 152.485 193.636 152.154 193.773C151.746 193.94 151.284 194.13 151.275 194.229C151.271 194.273 151.304 194.377 151.571 194.579C151.802 194.756 152.162 194.898 153.205 194.727C153.797 194.631 154.119 194.519 154.567 194.365C154.927 194.24 155.377 194.086 156.091 193.9C157.138 193.63 157.615 193.597 158.131 193.757C158.552 193.89 158.802 194.094 159.326 194.542C159.589 194.765 159.849 194.991 160.109 195.218C160.603 195.649 161.115 196.097 161.633 196.507C161.931 196.742 162.314 196.921 162.649 197.065C162.78 197.121 162.912 197.175 163.043 197.228C163.136 197.265 163.228 197.302 163.32 197.34C163.326 197.327 163.332 197.315 163.34 197.302C163.401 197.196 163.517 197.136 163.636 197.144C163.757 197.153 163.861 197.232 163.905 197.346L166.665 204.708C166.707 204.821 166.682 204.945 166.599 205.033C166.538 205.095 166.457 205.131 166.372 205.131L166.376 205.133ZM145.021 201.187C148.637 201.187 152.243 201.462 155.806 202.014C158.912 202.495 162.01 203.188 165.019 204.077C165.285 204.154 165.56 204.238 165.86 204.331L163.505 198.052C163.449 198.058 163.39 198.052 163.334 198.027C163.168 197.952 162.991 197.879 162.812 197.806C162.678 197.752 162.543 197.696 162.408 197.64C162.035 197.479 161.604 197.28 161.25 196.998C160.719 196.578 160.203 196.126 159.703 195.689C159.445 195.464 159.187 195.237 158.927 195.016C158.425 194.588 158.252 194.446 157.95 194.352C157.561 194.232 157.18 194.265 156.253 194.504C155.562 194.683 155.146 194.827 154.775 194.954C154.317 195.112 153.955 195.237 153.309 195.343C152.277 195.512 151.665 195.433 151.196 195.075C151.04 194.954 150.622 194.635 150.659 194.177C150.699 193.696 151.159 193.507 151.923 193.193C152.248 193.059 152.649 192.895 153.128 192.67C153.532 192.481 153.747 192.362 153.934 192.258C154.165 192.131 154.365 192.02 154.804 191.833C155.502 191.537 156.051 191.304 156.749 191.188C156.992 191.146 157.238 191.123 157.486 191.115C156.82 190.777 156.405 190.555 156.133 190.409C155.685 190.17 155.656 190.157 155.514 190.14C154.681 190.043 153.815 190.592 152.094 191.689L151.881 191.827C151.4 192.139 150.946 192.433 150.22 192.63C148.985 192.961 148.238 192.912 147.992 192.485C147.607 191.808 148.621 190.861 150.953 188.781L150.971 188.764C152.697 187.226 153.364 186.901 154.055 186.813C154.913 186.705 155.908 186.913 156.441 187.024C156.589 187.055 156.736 187.088 156.882 187.126C156.357 186.584 155.785 186.114 155.175 185.72C154.457 185.256 154.105 185.169 153.857 185.144C153.42 185.102 153.03 185.204 151.752 185.937C151.167 186.272 150.717 186.555 150.32 186.805C149.372 187.4 148.8 187.759 147.882 187.85C147.388 187.898 146.578 187.975 146.322 187.471C145.958 186.757 147.097 185.685 149.324 183.961C151.046 182.626 152.085 181.821 153.47 181.814H153.484C154.051 181.814 154.609 181.929 155.158 182.158C154.869 181.656 154.565 181.144 154.246 180.624C153.888 180.036 153.826 179.959 153.715 179.889C153.001 179.418 151.638 180.032 150.059 180.744C149.772 180.873 149.518 180.996 149.287 181.107C148.402 181.531 147.761 181.835 146.799 181.812C146.222 181.796 145.439 181.715 145.263 181.182C145.067 180.597 145.802 179.966 146.626 179.372C148.754 177.838 152.314 175.273 155.067 176.639C155.45 176.828 155.754 177.063 156.008 177.319C155.877 176.859 155.743 176.395 155.612 175.929C155.598 175.879 155.595 175.825 155.608 175.775L157.396 168C157.79 166.289 158.183 164.578 158.577 162.866C159.872 157.226 161.169 151.586 162.468 145.946C164.692 136.269 166.917 126.592 169.143 116.914C163.168 113.769 157.007 110.514 150.826 107.242C149.387 106.48 147.948 105.717 146.512 104.955L142.248 102.694C142.202 102.669 142.162 102.634 142.133 102.59C141.296 101.318 140.341 100.131 139.298 99.0634C137.57 97.2937 136.372 96.9793 135.921 96.8627C135.604 96.7795 135.29 96.7233 134.973 96.692C134.938 97.148 134.902 97.6039 134.867 98.0578C134.905 98.0807 134.944 98.1036 134.984 98.1265C134.992 98.1307 134.998 98.1349 135.007 98.1411C135.375 98.366 135.706 98.5971 136.021 98.8511C136.562 99.2883 137.053 99.7838 137.476 100.321C137.526 100.385 138.683 101.882 139.2 103.979C139.254 104.206 139.31 104.435 139.362 104.668C142.487 118.501 140.272 144.214 140.249 144.472C139.858 148.925 139.681 153.472 139.51 157.869C139.42 160.162 139.329 162.533 139.208 164.863C139.114 166.66 139.027 168.415 138.944 170.128L138.908 170.838C138.413 181.109 138.028 191.444 137.761 201.558C140.18 201.31 142.604 201.187 145.025 201.187H145.021Z" fill="#003058"/>
<path d="M88.3012 204.925C88.222 204.925 88.1471 204.896 88.0888 204.842C88.0201 204.779 87.9847 204.69 87.9889 204.598C88.3636 196.657 88.5739 188.677 88.6135 180.876C88.6135 180.703 88.7529 180.565 88.9258 180.565C89.0986 180.565 89.2381 180.707 89.236 180.88C89.1985 188.567 88.9924 196.43 88.628 204.256L90.6788 203.998C100.246 202.793 109.812 201.589 119.379 200.386C118.226 193.03 117.122 185.573 116.098 178.213C116.096 178.192 115.79 175.975 115.44 170.78L115.403 170.224C114.73 160.031 114.016 140.997 114.43 108.21C114.449 106.682 114.497 102.62 117.22 99.6736C117.607 99.2551 118.042 98.8658 118.513 98.516C118.65 98.414 118.846 98.4431 118.95 98.5806C119.052 98.72 119.023 98.9137 118.886 99.0178C118.446 99.3426 118.04 99.7069 117.68 100.096C115.121 102.865 115.074 106.752 115.057 108.216C114.645 140.985 115.357 159.999 116.029 170.18L116.067 170.736C116.416 175.904 116.716 178.102 116.72 178.125C117.759 185.587 118.882 193.151 120.052 200.605C120.064 200.688 120.043 200.773 119.993 200.84C119.943 200.909 119.866 200.952 119.783 200.963C110.11 202.179 100.437 203.397 90.7642 204.615L88.3449 204.919C88.3324 204.919 88.3178 204.921 88.3053 204.921L88.3012 204.925Z" fill="#003058"/>
<path d="M126.506 170.364C126.333 170.364 126.194 170.224 126.194 170.051V105.614C126.194 105.441 126.333 105.301 126.506 105.301C126.679 105.301 126.818 105.441 126.818 105.614V170.051C126.818 170.224 126.679 170.364 126.506 170.364Z" fill="#003058"/>
<path d="M133.281 110.583C132.639 110.583 132.034 110.323 131.611 109.867C131.13 109.347 130.628 108.834 130.12 108.343C129.148 107.402 128.111 106.498 127.035 105.659C126.895 105.549 126.87 105.347 126.978 105.208C127.089 105.066 127.291 105.043 127.432 105.151C128.525 106.005 129.581 106.923 130.57 107.881C131.086 108.381 131.596 108.903 132.086 109.432C132.387 109.759 132.829 109.938 133.297 109.94C133.764 109.936 134.203 109.742 134.499 109.409C134.813 109.055 135.127 108.689 135.431 108.324C136.404 107.154 136.539 106.965 136.808 106.588C136.905 106.451 137.022 106.288 137.197 106.049C137.647 105.441 138.092 104.812 138.523 104.183C138.623 104.035 138.825 103.998 138.971 104.1C139.119 104.2 139.156 104.402 139.054 104.548C138.619 105.183 138.169 105.816 137.713 106.43C137.54 106.665 137.426 106.825 137.33 106.959C137.051 107.348 136.912 107.544 135.925 108.734C135.617 109.105 135.298 109.476 134.98 109.836C134.563 110.304 133.951 110.579 133.304 110.585C133.295 110.585 133.287 110.585 133.281 110.585V110.583Z" fill="#003058"/>
<path d="M119.787 110.577C119.787 110.577 119.773 110.577 119.766 110.577C119.142 110.571 118.553 110.296 118.153 109.825C117.847 109.465 117.543 109.095 117.249 108.724C116.656 107.979 116.081 107.202 115.538 106.417L114.89 105.362C114.799 105.214 114.847 105.018 114.994 104.928C115.142 104.837 115.338 104.885 115.428 105.033L116.065 106.074C116.591 106.831 117.158 107.598 117.743 108.333C118.032 108.697 118.332 109.063 118.634 109.417C118.915 109.748 119.331 109.942 119.773 109.946C120.214 109.95 120.633 109.767 120.92 109.44C121.386 108.911 121.873 108.391 122.369 107.889C123.314 106.931 124.324 106.013 125.367 105.16C125.502 105.049 125.7 105.07 125.81 105.203C125.921 105.339 125.9 105.536 125.767 105.647C124.74 106.486 123.747 107.389 122.817 108.33C122.329 108.824 121.85 109.336 121.392 109.854C120.989 110.313 120.403 110.573 119.787 110.573V110.577Z" fill="#003058"/>
<path d="M128.171 110.923C128.689 110.923 129.108 110.503 129.108 109.986C129.108 109.468 128.689 109.049 128.171 109.049C127.654 109.049 127.234 109.468 127.234 109.986C127.234 110.503 127.654 110.923 128.171 110.923Z" fill="#003058"/>
<path d="M128.171 125.497C128.689 125.497 129.108 125.077 129.108 124.56C129.108 124.043 128.689 123.623 128.171 123.623C127.654 123.623 127.234 124.043 127.234 124.56C127.234 125.077 127.654 125.497 128.171 125.497Z" fill="#003058"/>
<path d="M128.171 140.071C128.689 140.071 129.108 139.651 129.108 139.134C129.108 138.616 128.689 138.197 128.171 138.197C127.654 138.197 127.234 138.616 127.234 139.134C127.234 139.651 127.654 140.071 128.171 140.071Z" fill="#003058"/>
<path d="M128.171 154.645C128.689 154.645 129.108 154.225 129.108 153.708C129.108 153.19 128.689 152.771 128.171 152.771C127.654 152.771 127.234 153.19 127.234 153.708C127.234 154.225 127.654 154.645 128.171 154.645Z" fill="#003058"/>
<path d="M128.171 169.219C128.689 169.219 129.108 168.799 129.108 168.282C129.108 167.764 128.689 167.345 128.171 167.345C127.654 167.345 127.234 167.764 127.234 168.282C127.234 168.799 127.654 169.219 128.171 169.219Z" fill="#003058"/>
<path d="M117.832 72.7473C117.766 72.7473 117.699 72.7473 117.632 72.7431L115.028 72.612C114.74 72.5974 114.52 72.3538 114.534 72.0665C114.549 71.7792 114.792 71.5585 115.08 71.573L117.684 71.7042C118.528 71.7479 119.356 71.4273 119.956 70.8298L121.557 69.2287C121.761 69.0247 122.09 69.0247 122.294 69.2287C122.498 69.4327 122.498 69.7617 122.294 69.9657L120.693 71.5668C119.935 72.3246 118.902 72.7494 117.834 72.7494L117.832 72.7473Z" fill="#003058"/>
<path d="M107.768 66.576C107.541 66.576 107.316 66.4698 107.175 66.2699C106.941 65.941 107.018 65.4871 107.345 65.2539L108.363 64.5294C108.215 64.5148 108.07 64.5023 107.922 64.4919C106.991 64.4232 106.046 64.4232 105.113 64.4919C104.711 64.519 104.362 64.2192 104.333 63.8173C104.303 63.4155 104.605 63.0678 105.007 63.0366C106.011 62.9637 107.027 62.9637 108.028 63.0366C108.823 63.0949 109.623 63.199 110.406 63.3489C110.693 63.403 110.918 63.6237 110.98 63.9089C111.043 64.1942 110.928 64.4898 110.691 64.6585L108.188 66.4386C108.059 66.5302 107.914 66.5739 107.766 66.5739L107.768 66.576Z" fill="#003058"/>
<path d="M124.595 61.1005C124.174 61.1005 123.776 60.8424 123.62 60.426L122.192 56.6242C121.99 56.085 122.263 55.4854 122.8 55.2834C123.339 55.0815 123.939 55.3542 124.141 55.8914L125.569 59.6931C125.771 60.2302 125.498 60.8319 124.961 61.0339C124.84 61.0797 124.717 61.1005 124.595 61.1005Z" fill="#003058"/>
<path d="M102.771 60.9549C102.619 60.9549 102.467 60.8883 102.363 60.7592C102.184 60.5343 102.221 60.2075 102.446 60.0284C103.464 59.2185 104.424 58.3253 105.303 57.3759C105.628 57.0241 105.946 56.6597 106.25 56.2912C106.433 56.0685 106.76 56.0393 106.983 56.2204C107.204 56.4037 107.237 56.7326 107.054 56.9533C106.737 57.3364 106.404 57.7174 106.067 58.0817C105.153 59.0707 104.153 59.9993 103.094 60.8425C102.998 60.9195 102.883 60.9549 102.769 60.9549H102.771Z" fill="#003058"/>
<path d="M125.79 52.9535C125.673 52.9535 125.556 52.916 125.461 52.8369C124.415 51.9833 123.25 51.3774 121.996 51.0339C121.484 50.8944 120.955 50.7986 120.422 50.7508C120.135 50.7258 119.925 50.4718 119.95 50.1865C119.975 49.8992 120.229 49.6889 120.514 49.7139C121.107 49.7681 121.696 49.8742 122.269 50.0283C123.666 50.4093 124.961 51.0818 126.119 52.0291C126.341 52.2102 126.375 52.5392 126.191 52.762C126.089 52.8869 125.939 52.9535 125.788 52.9535H125.79Z" fill="#003058"/>
<path d="M130.67 75.6328C130.62 75.9493 130.039 79.2263 127.395 81.5374C126.795 82.0641 126.087 82.5388 125.257 82.9198C123.714 83.6256 122.023 83.8734 120.366 83.6901C118.292 83.4632 116.267 82.5617 114.638 81.046C115.773 81.071 117.27 81.0273 119.002 80.7566H119.006C120.403 80.5401 121.952 80.1778 123.591 79.5886C125.005 79.0806 126.254 78.4851 127.339 77.8772C128.715 77.1027 129.825 76.3053 130.67 75.6328Z" fill="white"/>
<path d="M121.415 84.0608C121.055 84.0608 120.693 84.04 120.331 84.0004C118.155 83.7631 116.056 82.7949 114.424 81.2751C114.328 81.1876 114.299 81.0481 114.347 80.9295C114.395 80.8087 114.507 80.7338 114.643 80.7338C116.085 80.765 117.534 80.6692 118.952 80.4485C118.959 80.4485 118.965 80.4485 118.973 80.4465C120.508 80.207 122.025 79.8198 123.485 79.2951C124.753 78.8391 125.998 78.2708 127.185 77.6045C128.325 76.9612 129.433 76.2158 130.474 75.3872C130.574 75.306 130.716 75.2977 130.826 75.3622C130.936 75.4268 130.997 75.5538 130.978 75.6808C130.92 76.0534 130.324 79.3909 127.601 81.7706C126.943 82.3473 126.2 82.8303 125.388 83.2009C124.151 83.7672 122.796 84.0587 121.417 84.0587L121.415 84.0608ZM115.49 81.3625C116.914 82.4764 118.63 83.1864 120.399 83.38C122.034 83.5611 123.668 83.3029 125.125 82.6367C125.881 82.289 126.575 81.8414 127.187 81.3042C129.029 79.6928 129.843 77.567 130.168 76.4115C129.308 77.0486 128.411 77.6316 127.491 78.15C126.273 78.8329 124.996 79.4159 123.695 79.8822C122.194 80.4215 120.63 80.8212 119.052 81.0648C119.046 81.0648 119.04 81.0648 119.034 81.0669C117.866 81.248 116.677 81.348 115.488 81.3625H115.49Z" fill="#003058"/>
<path d="M127.457 81.5205C127.376 82.116 127.133 83.2048 126.298 84.1688C126.039 84.4665 125.646 84.91 124.969 85.1973C124.174 85.5325 123.466 85.4534 123.175 85.418C121.676 85.2327 120.712 84.1417 120.366 83.69C122.023 83.8732 123.714 83.6254 125.257 82.9196C126.087 82.5386 126.795 82.0639 127.395 81.5372L127.457 81.5205Z" fill="#003058"/>
<path d="M123.685 85.7639C123.441 85.7639 123.252 85.741 123.135 85.7264C121.592 85.5349 120.58 84.4855 120.116 83.8776C120.041 83.7777 120.031 83.6423 120.093 83.5341C120.154 83.4258 120.276 83.3633 120.399 83.3779C122.034 83.557 123.668 83.3009 125.125 82.6346C125.881 82.2869 126.575 81.8393 127.187 81.3022C127.222 81.2709 127.266 81.248 127.312 81.2355L127.374 81.2189C127.476 81.1918 127.582 81.2189 127.661 81.2855C127.74 81.3542 127.778 81.4583 127.763 81.5624C127.661 82.314 127.364 83.4112 126.531 84.3731C126.275 84.6688 125.846 85.1622 125.088 85.4849C124.553 85.7098 124.055 85.766 123.683 85.766L123.685 85.7639ZM121.113 84.0546C121.58 84.4959 122.292 84.9935 123.212 85.106C123.46 85.1351 124.116 85.2163 124.846 84.9082C125.469 84.6438 125.825 84.2336 126.06 83.963C126.537 83.4133 126.814 82.8095 126.974 82.2703C126.481 82.6305 125.95 82.9428 125.384 83.2009C124.055 83.8089 122.594 84.0983 121.111 84.0525L121.113 84.0546Z" fill="#003058"/>
<path d="M127.339 77.8774C126.254 78.4853 125.005 79.0808 123.591 79.5888C121.953 80.178 120.403 80.5402 119.006 80.7568H119.002C118.769 80.7776 118.546 80.7942 118.332 80.8067C118.7 80.103 119.554 78.7268 121.128 77.9294C122.473 77.2486 123.718 77.3069 124.686 77.3527C125.798 77.4047 126.708 77.6546 127.339 77.8774Z" fill="#003058"/>
<path d="M118.332 81.1333C118.222 81.1333 118.117 81.0771 118.057 80.9834C117.993 80.8835 117.988 80.7586 118.042 80.6545C118.54 79.7051 119.452 78.4122 120.98 77.6376C122.402 76.9173 123.731 76.9797 124.701 77.0255C125.625 77.0693 126.55 77.2504 127.447 77.5689C127.568 77.6127 127.653 77.7209 127.663 77.8479C127.674 77.9749 127.609 78.0978 127.497 78.1602C126.279 78.8431 125.001 79.4261 123.699 79.8945C122.196 80.4359 120.635 80.8335 119.054 81.0771C119.042 81.0771 119.029 81.0792 119.017 81.0813C118.784 81.1021 118.561 81.1187 118.349 81.1312C118.342 81.1312 118.336 81.1312 118.33 81.1312L118.332 81.1333ZM123.864 77.6543C123.087 77.6543 122.204 77.7501 121.274 78.2206C120.162 78.7848 119.406 79.6634 118.919 80.4359C118.936 80.4359 118.952 80.4338 118.969 80.4317C120.501 80.1923 122.019 79.8071 123.477 79.2824C124.503 78.9139 125.515 78.4705 126.493 77.9604C125.89 77.8021 125.277 77.7084 124.665 77.6793C124.411 77.6668 124.143 77.6543 123.86 77.6543H123.864Z" fill="#003058"/>
<path d="M93.2689 176.506C87.0666 176.506 81.185 175.236 75.7801 172.729C73.7439 171.784 71.766 170.655 69.9047 169.373C69.7631 169.275 69.7277 169.081 69.8256 168.938C69.9234 168.796 70.1171 168.761 70.2607 168.859C72.0929 170.122 74.0395 171.234 76.0445 172.165C81.364 174.632 87.1603 175.883 93.2689 175.883C93.3126 175.883 93.3563 175.883 93.4 175.883C93.5728 175.883 93.7123 176.023 93.7123 176.196C93.7123 176.368 93.5728 176.508 93.4 176.508C93.3563 176.508 93.3105 176.508 93.2668 176.508L93.2689 176.506Z" fill="#003058"/>
<path d="M94.443 168.802C94.443 168.802 94.4326 168.802 94.4264 168.802C89.49 168.536 84.6306 167.622 79.9794 166.079C77.2561 165.178 74.5787 164.049 72.022 162.729C71.8679 162.65 71.8096 162.461 71.8887 162.309C71.9679 162.155 72.1552 162.096 72.3093 162.175C74.8369 163.481 77.4831 164.595 80.1751 165.488C84.7721 167.012 89.5795 167.918 94.4597 168.18C94.6325 168.188 94.7637 168.336 94.7553 168.509C94.747 168.675 94.6075 168.804 94.443 168.804V168.802Z" fill="#003058"/>
<path d="M93.7143 168.49C93.7143 168.49 93.7039 168.49 93.6998 168.49C93.5269 168.481 93.3937 168.336 93.402 168.163C93.6789 162.298 93.8184 156.35 93.8184 150.48C93.8184 146.337 93.7476 142.138 93.6102 137.999C93.6061 137.861 93.6914 137.739 93.8205 137.693C94.8594 137.333 95.9129 136.981 96.9498 136.65L97.0309 136.625C98.4446 136.173 99.1525 135.946 99.6751 135.813C101.197 135.421 102.142 135.394 102.973 135.371C103.772 135.348 104.526 135.328 105.702 134.984C106.791 134.666 108.607 134.133 108.815 133.137C108.878 132.835 108.773 132.59 108.64 132.277C108.469 131.874 108.255 131.372 108.397 130.643C108.494 130.133 108.698 129.852 108.88 129.602C109.05 129.367 109.186 129.179 109.225 128.794C109.269 128.382 109.161 128.149 109.036 127.88C108.898 127.583 108.742 127.245 108.809 126.706C108.888 126.077 109.206 125.723 109.463 125.438C109.689 125.184 109.854 125.001 109.848 124.67C109.841 124.366 109.694 124.139 109.54 123.9C109.336 123.583 109.104 123.225 109.231 122.713C109.302 122.428 109.442 122.284 109.602 122.117C109.689 122.026 109.789 121.922 109.912 121.765C110.322 121.232 110.741 120.491 110.683 120.131C110.587 119.527 108.711 118.797 104.732 118.522C104.518 118.507 103.027 118.436 100.152 118.314L100.037 118.309C98.149 118.228 97.7014 118.209 97.0934 117.855C96.2981 117.393 96.0462 116.817 95.4944 115.553C95.3716 115.272 95.2321 114.953 95.0655 114.589C94.9489 114.337 94.8219 114.062 94.6783 113.764C93.1917 110.67 92.4589 110.063 91.8905 109.736C91.0973 109.282 90.0542 108.988 89.7648 109.271C89.5566 109.475 89.8168 110.129 90.1728 111.035C90.381 111.562 90.6392 112.215 90.887 112.988C91.1535 113.814 91.3596 114.618 91.5178 115.445C91.8343 117.091 91.9072 118.609 91.7281 119.717C91.4741 121.287 90.8828 122.478 90.4498 123.346C89.8543 124.543 89.2734 125.336 88.7613 126.036C88.5385 126.34 88.3282 126.627 88.1408 126.916C87.7681 127.487 87.4371 128.053 87.1248 128.649C86.4898 130.135 85.8589 131.636 85.2531 133.11C82.0905 140.801 77.5643 153.391 74.3247 162.598L74.1206 163.181C74.0644 163.343 73.8854 163.428 73.723 163.372C73.5606 163.316 73.4752 163.137 73.5314 162.974L73.7355 162.391C76.9772 153.177 81.5055 140.576 84.6743 132.875C85.2802 131.403 85.9089 129.906 86.5418 128.422C86.546 128.407 86.5523 128.395 86.5585 128.38C86.8833 127.76 87.2268 127.17 87.6141 126.575C87.8098 126.271 88.0263 125.977 88.2532 125.665C88.7508 124.984 89.3151 124.214 89.8855 123.067C90.3227 122.188 90.8682 121.095 91.1056 119.617C91.2742 118.578 91.2014 117.137 90.8995 115.561C90.7475 114.76 90.5476 113.981 90.2894 113.179C90.0479 112.426 89.7918 111.782 89.5878 111.264C89.1089 110.05 88.8196 109.319 89.3234 108.826C90.1229 108.045 91.9863 109.074 92.1945 109.194C92.8461 109.567 93.6727 110.237 95.2363 113.494C95.3799 113.796 95.5111 114.075 95.6277 114.329C95.7942 114.697 95.9358 115.018 96.0607 115.301C96.5875 116.504 96.7853 116.954 97.4015 117.314C97.8762 117.589 98.251 117.606 100.058 117.683L100.173 117.687C103.054 117.81 104.553 117.88 104.761 117.895C107.622 118.093 111.072 118.624 111.293 120.031C111.405 120.745 110.706 121.747 110.399 122.144C110.256 122.33 110.139 122.45 110.046 122.548C109.902 122.696 109.86 122.744 109.831 122.861C109.771 123.1 109.866 123.264 110.056 123.556C110.233 123.829 110.454 124.17 110.464 124.651C110.476 125.23 110.181 125.559 109.919 125.85C109.692 126.104 109.475 126.344 109.421 126.779C109.375 127.139 109.473 127.347 109.594 127.612C109.737 127.92 109.9 128.272 109.837 128.855C109.779 129.404 109.565 129.702 109.375 129.962C109.213 130.187 109.073 130.381 109 130.756C108.896 131.297 109.046 131.651 109.204 132.028C109.358 132.39 109.519 132.767 109.415 133.26C109.129 134.622 107.168 135.196 105.871 135.575C104.614 135.944 103.818 135.967 102.979 135.99C102.14 136.015 101.272 136.04 99.8167 136.412C99.3128 136.541 98.6091 136.766 97.2079 137.214L97.1267 137.239C96.1648 137.547 95.1905 137.87 94.2286 138.203C94.3618 142.273 94.4284 146.402 94.4284 150.474C94.4284 156.354 94.289 162.312 94.0121 168.186C94.0037 168.352 93.8663 168.483 93.6998 168.483L93.7143 168.49Z" fill="#003058"/>
<path d="M78.6782 186.984C78.0453 186.984 77.3832 186.878 76.7211 186.574C75.5302 186.029 74.0583 184.49 72.1761 177.207C71.589 174.938 71.0977 172.616 70.7125 170.309C70.7104 170.293 70.7083 170.276 70.7083 170.257V170.178L69.7589 169.229C69.6965 169.166 69.6632 169.081 69.6673 168.994C69.7131 167.992 69.8547 166.991 70.0921 166.018C70.4169 164.686 70.9165 163.399 71.5786 162.194C71.6452 162.071 71.7868 162.009 71.9221 162.04L72.9631 162.279C74.941 152.652 77.0563 142.915 79.2508 133.333C80.8248 126.465 82.4737 119.517 84.158 112.684C84.183 112.586 84.2517 112.505 84.3454 112.47C84.4391 112.432 84.5453 112.442 84.6286 112.497C84.9138 112.68 85.224 112.807 85.5759 112.884C85.707 112.913 85.807 113.023 85.8195 113.159C86.1359 116.429 86.4441 119.871 86.7376 123.385C86.8688 124.962 87.0083 126.667 87.154 128.497C87.154 128.505 87.154 128.513 87.154 128.522C87.154 128.695 87.0145 128.834 86.8417 128.834C86.6689 128.834 86.5378 128.703 86.5294 128.538C86.3837 126.715 86.2442 125.011 86.113 123.437C85.8257 120.004 85.5259 116.642 85.2157 113.438C85.0242 113.384 84.8389 113.313 84.664 113.229C83.015 119.933 81.3994 126.742 79.8566 133.475C77.6393 143.156 75.5032 152.996 73.5086 162.721C73.492 162.804 73.442 162.875 73.3712 162.92C73.3004 162.966 73.2151 162.981 73.1318 162.962L72.0096 162.704C71.4287 163.801 70.9873 164.965 70.6938 166.168C70.4772 167.057 70.3419 167.971 70.2919 168.885L71.2351 169.829C71.2934 169.887 71.3267 169.966 71.3267 170.049V170.232C71.7077 172.512 72.1949 174.807 72.7737 177.051C74.8349 185.027 76.3339 185.712 76.9731 186.006C78.3743 186.647 79.8504 186.266 80.9289 185.987C83.8041 185.242 86.4108 183.418 88.6739 180.567C89.667 179.322 90.5643 177.907 91.3472 176.364C91.393 176.272 91.4804 176.21 91.5824 176.195L93.3563 175.945C93.3813 175.883 93.4084 175.81 93.4375 175.729C93.4375 175.725 93.654 175.136 93.8227 174.544C94.3515 172.698 94.5701 170.765 94.4743 168.798C94.4556 168.8 94.4348 168.8 94.416 168.798C90.4186 168.552 86.4378 167.882 82.5882 166.81C79.511 165.952 76.4817 164.823 73.5857 163.46C73.4295 163.387 73.3629 163.199 73.4358 163.043C73.5086 162.887 73.696 162.821 73.8522 162.893C76.7149 164.243 79.7109 165.356 82.7548 166.206C86.3233 167.201 90.0043 167.844 93.7082 168.121C93.7727 168.005 93.9101 167.938 94.0454 167.967L94.8304 168.132C94.9678 168.161 95.0677 168.277 95.0781 168.417C95.2239 170.572 95.0032 172.689 94.4244 174.711C94.2495 175.325 94.033 175.914 94.0246 175.939C93.9705 176.087 93.9226 176.21 93.8893 176.295L93.8726 176.335C93.831 176.441 93.7373 176.516 93.6249 176.53L91.8302 176.782C91.0474 178.309 90.15 179.71 89.1632 180.948C86.8126 183.907 84.0956 185.804 81.085 186.584C80.4 186.761 79.5652 186.976 78.6699 186.976L78.6782 186.984Z" fill="#003058"/>
<path d="M190.527 172.445C190.515 172.445 190.388 172.432 190.146 172.406C189.984 172.389 189.821 172.371 189.803 172.368C189.803 172.368 189.803 172.368 189.801 172.368L189.603 172.348C189.495 172.337 189.401 172.269 189.353 172.171C189.307 172.073 189.313 171.956 189.374 171.867L189.688 171.386C187.883 169.406 184.258 166.256 179.268 165.989C178.298 165.937 177.313 166 176.338 166.17C176.23 166.316 176.12 166.462 176.009 166.608C175.88 166.78 175.749 166.953 175.62 167.126C175.618 167.13 175.616 167.132 175.612 167.136C175.606 167.143 175.601 167.151 175.595 167.157C175.526 167.261 175.406 167.309 175.285 167.288C175.162 167.268 175.066 167.172 175.037 167.053L174.816 166.17C174.8 166.104 174.806 166.035 174.833 165.973C175.225 165.052 175.647 164.136 176.091 163.249C176.542 162.344 177.021 161.453 177.556 160.526C177.588 160.472 177.633 160.43 177.69 160.403L177.702 160.397C175.233 158.09 172.764 155.783 170.294 153.474L169.139 152.396C166.944 150.347 164.752 148.298 162.558 146.248C162.476 146.171 162.441 146.058 162.466 145.95C164.708 136.194 166.951 126.44 169.195 116.683C169.224 116.56 169.322 116.467 169.447 116.446C169.57 116.423 169.695 116.479 169.763 116.585C172.079 120.198 174.39 123.77 176.632 127.202C183.794 138.157 191.218 149.152 198.697 159.881C198.772 159.987 198.772 160.128 198.697 160.237C198.11 161.09 197.564 161.875 197.029 162.633C196.411 163.51 195.836 164.317 195.274 165.094L195.597 165.75C195.641 165.839 195.641 165.945 195.593 166.033C195.091 166.989 194.523 167.913 193.904 168.777C192.98 170.07 191.914 171.277 190.74 172.364C190.681 172.418 190.606 172.448 190.527 172.448V172.445ZM190.177 171.781C190.19 171.781 190.202 171.783 190.215 171.785C190.288 171.794 190.361 171.802 190.419 171.808C191.522 170.776 192.524 169.635 193.396 168.413C193.967 167.613 194.496 166.764 194.966 165.883L194.631 165.202C194.579 165.098 194.589 164.975 194.658 164.882C195.253 164.059 195.861 163.206 196.519 162.273C197.015 161.569 197.521 160.843 198.06 160.06C190.619 149.381 183.236 138.442 176.109 127.543C173.994 124.308 171.82 120.949 169.639 117.547C167.463 127.004 165.289 136.458 163.116 145.915C165.266 147.924 167.415 149.931 169.566 151.94L170.721 153.018C173.301 155.429 175.878 157.838 178.458 160.247C178.533 160.318 178.568 160.42 178.554 160.522C178.539 160.624 178.475 160.711 178.383 160.757L178.052 160.922C177.542 161.809 177.084 162.662 176.651 163.53C176.228 164.376 175.826 165.248 175.449 166.125L175.485 166.27C175.493 166.258 175.501 166.247 175.51 166.235C175.643 166.058 175.776 165.881 175.91 165.702C175.957 165.639 176.026 165.596 176.103 165.581C177.165 165.383 178.239 165.313 179.299 165.369C184.669 165.656 188.504 169.114 190.313 171.15C190.406 171.255 190.417 171.411 190.342 171.527L190.175 171.781H190.177Z" fill="#003058"/>
<path d="M163.461 198.054C163.418 198.054 163.374 198.046 163.334 198.027C163.168 197.952 162.991 197.879 162.812 197.806C162.678 197.752 162.543 197.696 162.408 197.64C162.035 197.479 161.604 197.28 161.25 196.998C160.719 196.578 160.203 196.126 159.703 195.691C159.445 195.466 159.187 195.239 158.927 195.018C158.425 194.59 158.252 194.448 157.95 194.354C157.561 194.234 157.18 194.267 156.253 194.506C155.562 194.685 155.146 194.829 154.775 194.956C154.317 195.114 153.955 195.239 153.309 195.345C152.277 195.514 151.665 195.435 151.196 195.077C151.04 194.956 150.622 194.637 150.659 194.179C150.699 193.698 151.159 193.509 151.923 193.195C152.248 193.061 152.649 192.897 153.128 192.672C153.532 192.483 153.747 192.364 153.934 192.26C154.165 192.133 154.365 192.022 154.804 191.835C155.502 191.539 156.051 191.306 156.749 191.19C156.992 191.148 157.238 191.125 157.486 191.117C156.82 190.78 156.405 190.557 156.133 190.411C155.685 190.172 155.656 190.159 155.514 190.142C154.681 190.045 153.815 190.594 152.094 191.691L151.881 191.829C151.4 192.141 150.946 192.435 150.22 192.633C148.987 192.964 148.238 192.914 147.992 192.487C147.607 191.81 148.621 190.863 150.953 188.783L150.971 188.766C152.697 187.228 153.364 186.903 154.055 186.815C154.913 186.707 155.908 186.915 156.441 187.026C156.589 187.057 156.736 187.09 156.882 187.128C156.357 186.586 155.785 186.116 155.175 185.722C154.457 185.258 154.105 185.171 153.857 185.146C153.42 185.104 153.03 185.206 151.752 185.939C151.167 186.274 150.717 186.557 150.32 186.807C149.372 187.403 148.8 187.761 147.882 187.852C147.388 187.9 146.578 187.977 146.322 187.473C145.958 186.759 147.097 185.687 149.324 183.963C151.046 182.629 152.085 181.823 153.47 181.817H153.484C154.051 181.817 154.609 181.931 155.158 182.16C154.869 181.658 154.565 181.146 154.246 180.626C153.888 180.039 153.826 179.961 153.715 179.891C153.001 179.42 151.638 180.034 150.059 180.746C149.772 180.875 149.518 180.998 149.287 181.109C148.402 181.533 147.765 181.842 146.799 181.814C146.222 181.798 145.439 181.717 145.263 181.186C145.067 180.601 145.802 179.97 146.626 179.376C148.754 177.842 152.314 175.277 155.067 176.643C155.881 177.047 156.337 177.655 156.734 178.24C156.738 178.246 156.743 178.252 156.747 178.258C156.782 178.31 156.818 178.362 156.853 178.415L157.038 178.689C157.038 178.689 157.047 178.704 157.051 178.71C158.577 180.971 160.267 183.416 162.212 186.166C165.229 181.862 168.223 177.436 171.113 173.006C171.267 172.77 171.462 172.479 171.693 172.133C172.497 170.938 173.711 169.131 175.1 166.785C175.108 166.772 175.116 166.76 175.127 166.747C175.254 166.576 175.383 166.406 175.512 166.235C175.645 166.058 175.778 165.881 175.912 165.702C175.959 165.639 176.028 165.596 176.105 165.581C177.167 165.383 178.243 165.313 179.301 165.369C184.671 165.656 188.506 169.114 190.315 171.15C190.409 171.255 190.419 171.411 190.344 171.527L189.898 172.208C189.888 172.225 189.876 172.241 189.861 172.256C185.474 176.759 183.321 178.627 182.614 179.241L182.561 179.285C180.192 181.336 168.266 191.691 166.201 194.194C165.549 194.985 164.975 195.828 164.969 195.837C164.577 196.415 164.213 197.011 163.89 197.608C163.836 197.704 163.792 197.788 163.749 197.869L163.738 197.89C163.682 197.994 163.574 198.054 163.463 198.054H163.461ZM157.505 193.659C157.736 193.659 157.934 193.692 158.138 193.757C158.558 193.89 158.808 194.094 159.333 194.542C159.595 194.764 159.855 194.991 160.115 195.218C160.609 195.649 161.121 196.097 161.639 196.507C161.937 196.742 162.32 196.921 162.656 197.065C162.787 197.121 162.918 197.175 163.049 197.227C163.143 197.265 163.234 197.302 163.326 197.34C163.332 197.327 163.338 197.315 163.347 197.302C163.678 196.69 164.053 196.076 164.456 195.481C164.481 195.445 165.052 194.606 165.722 193.792C167.821 191.252 179.78 180.865 182.155 178.808L182.205 178.764C182.907 178.156 185.039 176.308 189.395 171.838L189.692 171.384C187.887 169.404 184.262 166.254 179.272 165.987C178.302 165.935 177.317 165.998 176.343 166.168C176.234 166.314 176.124 166.46 176.014 166.605C175.885 166.776 175.758 166.945 175.631 167.116C174.236 169.468 173.02 171.277 172.216 172.477C171.987 172.818 171.791 173.108 171.639 173.343C168.664 177.904 165.581 182.462 162.472 186.884C162.414 186.967 162.318 187.017 162.218 187.017C162.116 187.017 162.023 186.967 161.964 186.886C159.903 183.976 158.123 181.408 156.524 179.037C156.52 179.029 156.514 179.022 156.509 179.014L156.339 178.76C156.301 178.704 156.264 178.648 156.226 178.594C156.22 178.585 156.214 178.577 156.21 178.567C155.847 178.036 155.464 177.532 154.794 177.199C152.377 176.002 149.01 178.427 146.997 179.878C145.86 180.696 145.856 180.959 145.86 180.986C145.86 180.986 145.981 181.165 146.818 181.188C147.634 181.209 148.156 180.959 149.023 180.542C149.258 180.43 149.516 180.305 149.808 180.174C151.625 179.354 153.062 178.704 154.063 179.364C154.292 179.516 154.396 179.664 154.783 180.295C155.31 181.157 155.804 182.002 156.247 182.805C156.318 182.932 156.291 183.091 156.183 183.189C156.076 183.286 155.916 183.297 155.795 183.214C155.046 182.697 154.269 182.435 153.488 182.435H153.476C152.352 182.441 151.509 183.057 149.71 184.452C147.299 186.32 146.843 186.974 146.884 187.192C146.922 187.228 147.101 187.296 147.813 187.226C148.596 187.149 149.062 186.855 149.991 186.272C150.374 186.03 150.851 185.733 151.446 185.391C152.745 184.646 153.278 184.459 153.919 184.519C154.261 184.552 154.688 184.656 155.518 185.191C156.476 185.81 157.342 186.605 158.092 187.55C158.179 187.661 158.181 187.813 158.1 187.927C158.019 188.04 157.871 188.085 157.74 188.038C157.278 187.869 156.801 187.734 156.324 187.634C155.818 187.527 154.892 187.334 154.138 187.43C153.674 187.488 153.145 187.663 151.392 189.226L151.373 189.243C150.18 190.307 148.552 191.76 148.546 192.17C148.671 192.245 149.214 192.252 150.062 192.025C150.692 191.852 151.088 191.596 151.546 191.3L151.754 191.167C153.613 189.984 154.54 189.393 155.593 189.518C155.86 189.549 155.97 189.607 156.432 189.857C156.782 190.045 157.369 190.359 158.435 190.888C158.86 191.1 159.21 191.269 159.441 191.381C159.587 191.452 159.655 191.623 159.597 191.775C159.539 191.927 159.374 192.008 159.218 191.964C158.406 191.731 157.611 191.677 156.855 191.804C156.23 191.908 155.735 192.118 155.052 192.408C154.642 192.583 154.465 192.68 154.24 192.803C154.042 192.911 153.82 193.036 153.399 193.234C152.908 193.465 152.495 193.634 152.164 193.771C151.756 193.938 151.294 194.127 151.286 194.227C151.282 194.271 151.315 194.375 151.581 194.577C151.812 194.754 152.173 194.896 153.216 194.725C153.807 194.629 154.13 194.517 154.577 194.363C154.938 194.238 155.387 194.084 156.101 193.898C156.734 193.734 157.159 193.657 157.509 193.657L157.505 193.659Z" fill="#003058"/>
<path d="M195.212 166.096C195.12 166.096 195.031 166.056 194.97 165.981C194.358 165.23 193.673 164.545 192.934 163.945C188.02 159.956 181.589 160.318 178.191 160.889C178.023 160.916 177.86 160.803 177.831 160.633C177.802 160.462 177.917 160.301 178.087 160.272C181.587 159.685 188.222 159.317 193.325 163.46C194.098 164.087 194.814 164.803 195.453 165.588C195.561 165.721 195.543 165.919 195.407 166.027C195.349 166.075 195.28 166.098 195.21 166.098L195.212 166.096Z" fill="#003058"/>
<path d="M140.455 136.74C140.443 136.74 140.432 136.74 140.42 136.74C140.249 136.721 140.124 136.567 140.145 136.394C141.042 128.407 141.557 123.211 141.809 119.542C141.923 117.885 142.308 115.847 143.493 115.516C144.063 115.357 144.555 115.661 145.075 115.984C145.577 116.294 146.145 116.646 146.949 116.757C147.721 116.863 148.54 116.713 149.381 116.315C148.698 115.17 148.052 114.002 147.461 112.836C147.132 112.191 146.728 111.366 146.299 110.492C144.867 107.571 142.908 103.571 141.607 101.837C141.588 101.812 140.799 100.634 139.289 99.0679C139.275 99.0513 137.711 97.4419 136.285 96.9755C136.095 96.9131 135.902 96.8631 135.898 96.8631C135.579 96.7819 135.254 96.7236 134.93 96.6924C134.838 96.6841 134.748 96.6757 134.661 96.6716C134.488 96.6632 134.357 96.5154 134.365 96.3426C134.374 96.1698 134.524 96.0365 134.694 96.047C134.79 96.0532 134.89 96.0594 134.99 96.0699C135.346 96.1053 135.702 96.1677 136.052 96.2572C136.06 96.2593 136.27 96.3135 136.477 96.3801C138.053 96.8943 139.67 98.562 139.737 98.6328C141.3 100.257 142.106 101.464 142.115 101.475C143.441 103.24 145.335 107.109 146.857 110.215C147.284 111.087 147.688 111.912 148.015 112.551C148.65 113.8 149.347 115.056 150.087 116.278C150.13 116.351 150.143 116.44 150.12 116.521C150.097 116.605 150.043 116.673 149.966 116.715C148.902 117.287 147.857 117.508 146.862 117.375C145.925 117.248 145.269 116.842 144.742 116.515C144.244 116.207 143.949 116.036 143.655 116.117C143.022 116.294 142.564 117.587 142.427 119.58C142.173 123.261 141.659 128.468 140.759 136.463C140.74 136.623 140.605 136.74 140.449 136.74H140.455Z" fill="#003058"/>
<path d="M114.638 136.74C114.478 136.74 114.341 136.617 114.328 136.452C113.953 131.872 113.533 127.181 113.079 122.507C112.954 121.206 112.569 117.25 111.241 116.952C110.993 116.896 110.787 116.983 110.379 117.167C110.106 117.29 109.764 117.444 109.313 117.573C107.986 117.952 106.517 117.808 104.941 117.144C104.863 117.11 104.801 117.048 104.772 116.971C104.743 116.894 104.743 116.804 104.778 116.727C105.388 115.378 105.944 113.985 106.433 112.588C107.095 110.7 107.651 108.749 108.088 106.794C108.126 106.626 108.295 106.519 108.461 106.557C108.63 106.594 108.736 106.761 108.699 106.93C108.257 108.91 107.693 110.883 107.023 112.795C106.562 114.106 106.044 115.414 105.48 116.686C106.806 117.192 108.036 117.287 109.14 116.971C109.548 116.854 109.854 116.717 110.123 116.596C110.547 116.405 110.916 116.238 111.376 116.342C112.937 116.692 113.427 119.623 113.702 122.447C114.155 127.123 114.576 131.818 114.951 136.4C114.965 136.573 114.836 136.723 114.666 136.737C114.657 136.737 114.649 136.737 114.641 136.737L114.638 136.74Z" fill="#003058"/>
<path d="M143.578 185.458C143.526 185.458 143.474 185.446 143.424 185.418C143.274 185.333 143.222 185.144 143.305 184.994C143.816 184.094 144.467 183.295 145.246 182.622C146.133 181.854 147.149 181.273 148.265 180.896C148.429 180.842 148.606 180.93 148.66 181.092C148.714 181.254 148.627 181.434 148.465 181.488C147.426 181.84 146.478 182.379 145.654 183.093C144.929 183.72 144.321 184.463 143.847 185.302C143.788 185.404 143.684 185.46 143.574 185.46L143.578 185.458Z" fill="#003058"/>
<path d="M150.186 197.04C150.126 197.04 150.066 197.024 150.012 196.986C149.868 196.89 149.833 196.695 149.928 196.553C150.137 196.247 150.384 195.97 150.661 195.735C151.494 195.027 152.433 194.81 153.072 194.752C153.243 194.738 153.395 194.862 153.411 195.035C153.426 195.208 153.301 195.358 153.128 195.375C152.579 195.425 151.773 195.61 151.065 196.212C150.83 196.411 150.622 196.645 150.445 196.905C150.384 196.994 150.286 197.042 150.186 197.042V197.04Z" fill="#003058"/>
<path d="M139.431 72.2224C139.277 72.2224 139.114 72.2141 138.939 72.1953C138.654 72.1641 138.448 71.9059 138.479 71.6207C138.511 71.3354 138.767 71.1293 139.054 71.1606C139.914 71.2543 140.355 71.0127 140.541 70.8608C141.392 70.1591 141.436 68.073 140.02 65.9264C139.862 65.687 139.928 65.3643 140.168 65.206C140.407 65.0478 140.73 65.1144 140.888 65.3539C142.487 67.7794 142.623 70.4922 141.201 71.6623C140.876 71.9309 140.318 72.2224 139.429 72.2224H139.431Z" fill="white"/>
<path d="M104.62 81.3334C104.201 81.3334 103.893 81.2355 103.7 81.1481C101.924 80.3444 101.688 77.5191 102.488 75.2498C102.584 74.9791 102.881 74.8375 103.152 74.9312C103.423 75.027 103.566 75.3247 103.471 75.5954C102.688 77.8169 103.179 79.7698 104.129 80.1987C104.299 80.2757 104.786 80.4152 105.619 80.0529C105.884 79.9384 106.19 80.0592 106.304 80.3215C106.419 80.5859 106.298 80.892 106.036 81.0065C105.476 81.2501 105.003 81.3313 104.62 81.3313V81.3334Z" fill="white"/>
<path d="M123.664 93.6214C120.329 93.6214 117.582 92.3139 116.377 91.7372C111.214 89.2763 108.399 84.7521 105.419 79.9614C104.249 78.0793 103.192 76.1056 102.278 74.0964C102.207 73.9403 102.278 73.755 102.432 73.6821C102.588 73.6113 102.773 73.6821 102.846 73.8362C103.75 75.8224 104.795 77.7712 105.95 79.6304C108.88 84.3399 111.647 88.7891 116.645 91.173C118.157 91.8934 122.169 93.8067 126.633 92.6116C133.418 90.7941 136.31 83.226 137.034 80.9504C138.161 77.4131 138.269 73.9923 138.269 73.9569C138.284 73.4323 138.277 72.993 138.269 72.4371C138.261 71.8396 138.252 71.0963 138.269 70.0053C138.288 68.729 138.332 67.4424 138.402 66.1828C138.448 65.3791 138.619 64.588 138.908 63.8322L139.537 62.1957C139.599 62.0354 139.779 61.9542 139.941 62.0167C140.101 62.0791 140.182 62.2603 140.12 62.4206L139.491 64.0571C139.223 64.7524 139.066 65.4811 139.025 66.2182C138.954 67.4694 138.91 68.7478 138.892 70.0157C138.877 71.0963 138.885 71.8354 138.892 72.4308C138.898 72.9722 138.904 73.4406 138.892 73.9778C138.892 74.0132 138.781 77.5192 137.628 81.1419C136.878 83.4946 133.884 91.3166 126.793 93.2154C125.715 93.5048 124.663 93.6214 123.664 93.6214Z" fill="#003058"/>
</g>
<defs>
<clipPath id="clip0_1958_25583">
<rect width="267.093" height="250" fill="white" transform="translate(0.453369)"/>
</clipPath>
</defs>
</svg>
